<svg xmlns="http://www.w3.org/2000/svg" width="220" height="39" viewBox="0 0 1807 319" shape-rendering="geometricPrecision" text-rendering="geometricPrecision" image-rendering="optimizeQuality" fill-rule="evenodd" clip-rule="evenodd"><defs><style>.str0{stroke:#fff;stroke-width:.981138}.fil1{fill:#2b4392}.fil0,.fil2{fill-rule:nonzero}.fil2{fill:#fefefe}.fil0{fill:#2b4392}</style></defs><g id="Слой_x0020_1"><g id="_535143882176"><path class="fil0 str0" d="M596 122h56l-7 25c9-11 16-18 23-23 7-4 15-6 23-6 9 0 18 3 27 8l-30 43c-6-3-12-4-16-4-7 0-14 3-20 9-9 9-17 26-23 51l-14 52h-60l41-155zm110 78c6-24 19-43 39-59 21-15 44-23 72-23 31 0 52 9 63 27 9 15 10 33 5 54-7 24-20 44-40 59s-44 23-72 23c-25 0-43-6-55-19-15-16-19-36-12-62zm60 0c-4 14-4 24 0 31 4 6 10 10 18 10 9 0 17-4 24-10 7-7 13-17 17-32 3-13 3-23-1-30-3-6-9-10-18-10-8 0-16 4-24 10-7 7-13 17-16 31zm168-78h56l-7 25c11-10 22-18 31-22 10-5 21-7 33-7 17 0 28 5 35 15s7 25 2 45l-27 99h-60l23-85c3-10 3-17 0-21-2-4-7-6-13-6-8 0-14 3-20 8-6 6-11 16-15 30l-20 74h-59l41-155zm160 112l61-5c0 7 2 12 6 15 3 3 9 4 16 4 8 0 15-1 20-5 4-2 7-5 8-9 1-5 0-8-4-10-3-2-11-4-24-6-20-4-34-7-41-10s-12-9-16-16-4-16-2-25c3-10 9-19 17-27 7-7 17-13 29-16 11-4 26-6 43-6 19 0 32 2 40 4 8 3 14 8 19 14 4 6 7 14 8 24l-58 5c0-5-2-8-4-11-4-3-10-4-16-4-7 0-12 1-16 3-4 3-6 6-7 9-1 4 0 7 4 9 3 2 11 3 24 5 19 2 33 5 42 9 8 4 14 10 17 18 3 7 4 15 1 24-2 9-7 18-15 26-8 9-18 16-31 21s-30 7-50 7c-28 0-47-4-57-12s-15-20-14-35zm265-62l-56-6c5-10 10-18 16-23 6-6 13-11 22-15 6-3 14-6 24-7 10-2 21-3 32-3 18 0 32 1 42 3s18 6 24 13c4 4 6 10 7 18 1 9 0 16-2 24l-18 68c-2 8-3 13-4 18 0 4 1 9 2 15h-56c-1-4-2-7-2-9s0-5 1-10c-10 8-19 13-28 17-11 4-24 6-38 6-19 0-32-4-39-13-7-8-9-19-6-32 3-12 9-21 18-29s23-13 43-17c24-4 39-8 46-9 7-2 15-5 23-7 2-8 2-13 0-16s-7-4-15-4c-10 0-17 1-23 4-5 3-9 7-13 14zm43 32c-9 3-18 5-28 7-12 4-21 7-25 10s-7 7-8 11c-1 5-1 8 2 11 2 3 7 5 13 5 7 0 13-2 20-5 6-3 12-7 15-12 4-4 7-10 9-18l2-9zm118-82h60l-34 127h50l-8 28h-109l41-155zm119-84h167l-7 28c-4 13-12 21-26 21h-27c-9 0-19 7-22 16l-47 174h-59l52-190h-64l8-28c3-13 12-21 25-21zM455 38h167l-7 28c-4 13-12 21-26 21h-27c-9 0-19 7-22 16l-47 174h-59l52-190h-64l8-28c3-13 12-21 25-21z"/><path class="fil1 str0" d="M1 319c26-96 52-195 78-291 5-17 16-28 34-28h272l-79 291c-4 17-16 28-34 28H1z"/><path class="fil2 str0" d="M128 41h203l-12 48c-24 0-42 2-57 23l6-23h-33c-9 0-19 7-22 16l-48 174h-58l51-190H95l8-27c3-13 12-21 25-21zm119 238h-27l26-95s9-43 58-43l-25 94-6 23c-4 13-13 21-26 21z"/></g></g></svg>