<?xml version="1.0" encoding="utf-8"?>
<!-- Generator: Adobe Illustrator 21.1.0, SVG Export Plug-In . SVG Version: 6.00 Build 0)  -->
<svg version="1.1" id="Слой_1" xmlns="http://www.w3.org/2000/svg" xmlns:xlink="http://www.w3.org/1999/xlink" x="0px" y="0px"
	 viewBox="0 0 40 40" style="enable-background:new 0 0 40 40;" xml:space="preserve">
<g>
	<path d="M16.9,26.5l-3.4-3.4c-0.4-0.4-0.4-1.1,0-1.6l10.7-10.7c1.4-1.4,3.6-1.4,4.9,0c1.4,1.4,1.4,3.6,0,5L18.5,26.5
		C18.1,26.9,17.4,26.9,16.9,26.5z M24.5,11.9l-0.4,0.4l3.5,3.5l0.4-0.4L24.5,11.9z M14.3,22.4l3.4,3.4c0,0,0.1,0,0.1,0l9.2-9.2
		l-3.5-3.5l-9.1,9.1C14.2,22.3,14.2,22.3,14.3,22.4z M28.4,11.6c-0.9-0.9-2.2-1-3.2-0.3l3.5,3.5C29.4,13.7,29.3,12.4,28.4,11.6z"/>
	<path d="M12.9,23.3l3.8,3.8c0.2,0.2,0.2,0.4,0.2,0.7c-0.1,0.2-0.2,0.4-0.5,0.5l-5.7,1.9c-0.3,0.1-0.5,0-0.7-0.2l0,0
		c-0.2-0.2-0.3-0.5-0.2-0.7l1.9-5.7c0.1-0.2,0.3-0.4,0.5-0.5C12.5,23.1,12.7,23.1,12.9,23.3z M11,29l1.4-0.5l-0.9-0.9L11,29z
		 M11.8,26.6l1.6,1.6l2.2-0.7l-3.1-3.1L11.8,26.6z"/>
</g>
</svg>
