<?xml version="1.0" encoding="utf-8"?>
<!-- Generator: Adobe Illustrator 21.1.0, SVG Export Plug-In . SVG Version: 6.00 Build 0)  -->
<svg version="1.1" xmlns="http://www.w3.org/2000/svg" xmlns:xlink="http://www.w3.org/1999/xlink" x="0px" y="0px"
	 viewBox="0 0 40 40" style="enable-background:new 0 0 40 40;" xml:space="preserve">
<style type="text/css">
	.st0{fill:none;}
	.st1{fill:#B2B2B2;}
</style>
<g id="Слой_1">
	<title>глаз</title>
	<path class="st0" d="M0,0h40v40H0V0z"/>
	<path class="st1" d="M28.4,13.9c-0.2-0.1-0.5-0.2-0.7-0.3c-1.8-0.8-3.8-1.3-5.7-1.4c-0.3,0-0.6-0.1-0.9-0.1L20,12h-1.1
		c-2.3,0.1-4.5,0.6-6.6,1.5c-0.2,0.1-0.5,0.2-0.7,0.3C4.6,17.1,0,24.2,0,32c0,0.6,0.5,1,1.1,1h37.8c0.6,0,1.1-0.4,1.1-1
		C40,24.2,35.5,17.1,28.4,13.9z M1.4,32.4c-0.2,0-0.3-0.1-0.5-0.2c-0.1-0.1-0.2-0.3-0.2-0.5c0.1-6.2,3.2-12,8.3-15.5l1.3-0.9
		l-0.7,1.3C6.8,21.7,8,28.1,12.4,31.7l0.8,0.6H1.4z M25.1,32.4H14.7c-5.4-2.9-7.5-9.7-4.6-15.1c0.6-1.1,1.3-2,2.2-2.8
		c0.1,0,0.1-0.1,0.2-0.1h0.1c2.4-1,4.9-1.6,7.5-1.6c2.5,0,5,0.5,7.4,1.5c0.1,0,0.2,0.1,0.3,0.1c4.5,4.2,4.6,11.3,0.4,15.8
		C27.2,31,26.3,31.7,25.1,32.4L25.1,32.4z M39.1,32.2c-0.1,0.1-0.3,0.2-0.5,0.2H26.8l0.8-0.6c4.5-3.7,5.7-10,2.9-15l-0.7-1.4
		l1.3,0.9c5.1,3.6,8.1,9.3,8.2,15.5C39.3,31.9,39.2,32,39.1,32.2L39.1,32.2z M1.8,35.4l33-30"/>
	<path class="st1" d="M20,16.4c-3,0-5.4,2.4-5.4,5.4s2.4,5.5,5.5,5.5s5.4-2.4,5.4-5.4C25.4,18.8,23,16.4,20,16.4z M20,26.5
		c-2.6,0-4.7-2.1-4.7-4.7s2.1-4.7,4.7-4.7c2.6,0,4.7,2.1,4.7,4.7l0,0C24.7,24.4,22.6,26.5,20,26.5L20,26.5z M20.4,7.3v2.9
		c0,0.2-0.2,0.4-0.4,0.4s-0.4-0.2-0.4-0.4V7.3c0-0.2,0.2-0.4,0.4-0.4S20.4,7.1,20.4,7.3z M24.3,10.9c-0.2,0-0.3-0.2-0.3-0.4
		c0,0,0,0,0,0l0.5-2.9c0-0.2,0.2-0.3,0.4-0.3h0.1c0.2,0,0.3,0.2,0.3,0.4l-0.5,2.9C24.7,10.8,24.5,10.9,24.3,10.9L24.3,10.9z
		 M16,10.5c0,0.2-0.1,0.4-0.3,0.4c0,0,0,0,0,0c-0.2,0-0.3-0.1-0.4-0.3l-0.5-2.9c0-0.2,0.1-0.4,0.3-0.4c0,0,0,0,0,0h0.1
		c0.2,0,0.3,0.1,0.4,0.3L16,10.5z M29.1,9.1l-1,2.7c-0.1,0.1-0.2,0.2-0.4,0.3c0,0-0.1,0-0.1,0c-0.2-0.1-0.3-0.3-0.2-0.5c0,0,0,0,0,0
		l1-2.7c0.1-0.1,0.2-0.2,0.4-0.2h0.1C29.1,8.7,29.2,8.9,29.1,9.1z M12.6,11.6c0.1,0.2,0,0.4-0.2,0.5h-0.1c-0.2,0-0.3-0.1-0.3-0.3
		l-1-2.7c-0.1-0.2,0-0.4,0.2-0.5c0,0,0,0,0,0h0.1c0.2,0,0.3,0.1,0.4,0.2L12.6,11.6z"/>
</g>
<g id="Слой_2">
	<path class="st1" d="M33.3,7.6L5.1,35.7c-0.5,0.5,0.3,1.2,0.7,0.7L34,8.3C34.5,7.8,33.8,7.1,33.3,7.6z"/>
</g>
</svg>
