<svg id="Слой_1" data-name="Слой 1" xmlns="http://www.w3.org/2000/svg" viewBox="0 0 40 40"><defs><style>.cls-1{fill:none}</style></defs><title>глаз</title><path class="cls-1" d="M0 0h40v40H0z"/><path d="M28.36 13.86a7.84 7.84 0 0 0-.71-.33 19.07 19.07 0 0 0-5.72-1.43c-.31 0-.58-.06-.86-.07L20 12h-1.06a19.7 19.7 0 0 0-6.57 1.5 6 6 0 0 0-.68.32A20 20 0 0 0 0 32a1.07 1.07 0 0 0 1.09 1h37.82A1.07 1.07 0 0 0 40 32a19.94 19.94 0 0 0-11.64-18.14zm-27 18.5a.63.63 0 0 1-.47-.2.63.63 0 0 1-.2-.47A19.28 19.28 0 0 1 9 16.19l1.27-.87-.74 1.35a12 12 0 0 0 2.91 15.05l.79.64zm23.78 0H14.73a11.16 11.16 0 0 1-2.46-17.93.79.79 0 0 1 .16-.07h.1A18.82 18.82 0 0 1 20 12.73a19 19 0 0 1 7.37 1.47 1.27 1.27 0 0 1 .28.15 11.15 11.15 0 0 1-2.44 17.93zm13.91-.2a.65.65 0 0 1-.47.2H26.82l.79-.64a12 12 0 0 0 2.91-15.05l-.74-1.35 1.28.87a19.31 19.31 0 0 1 8.22 15.51.61.61 0 0 1-.2.46z"/><path d="M20 16.36a5.45 5.45 0 1 0 5.45 5.45A5.46 5.46 0 0 0 20 16.36zm0 10.18a4.73 4.73 0 1 1 4.73-4.73A4.74 4.74 0 0 1 20 26.55zm.36-19.27v2.91a.36.36 0 1 1-.73 0V7.27a.36.36 0 1 1 .73 0zm3.95 3.65a.35.35 0 0 1-.31-.42l.51-2.87a.36.36 0 0 1 .35-.31h.07a.37.37 0 0 1 .29.42l-.51 2.87a.38.38 0 0 1-.41.29zM16 10.5a.37.37 0 0 1-.36.42.35.35 0 0 1-.35-.29l-.51-2.87a.35.35 0 0 1 .29-.42h.06a.37.37 0 0 1 .36.31zm13.12-1.42l-1 2.73a.38.38 0 0 1-.35.25.27.27 0 0 1-.12 0 .36.36 0 0 1-.22-.47l1-2.73a.38.38 0 0 1 .35-.23h.13a.37.37 0 0 1 .21.45zm-16.55 2.48a.37.37 0 0 1-.22.47h-.13a.36.36 0 0 1-.33-.25l-1-2.73a.36.36 0 0 1 .22-.47h.12a.36.36 0 0 1 .35.23z"/></svg>