<?xml version="1.0" encoding="utf-8"?>
<!-- Generator: Adobe Illustrator 21.1.0, SVG Export Plug-In . SVG Version: 6.00 Build 0)  -->
<svg version="1.1" id="Слой_1" xmlns="http://www.w3.org/2000/svg" xmlns:xlink="http://www.w3.org/1999/xlink" x="0px" y="0px"
	 viewBox="0 0 512 512" style="enable-background:new 0 0 512 512;" xml:space="preserve">
<style type="text/css">
	.st0{fill:#FFFFFF;}
</style>
<g id="surface1">
	<path class="st0" d="M240,133.3c20.8,0,37.6,16.9,37.6,37.6c0,20.7-16.9,37.6-37.6,37.6s-37.6-16.9-37.6-37.6
		C202.4,150.1,219.3,133.3,240,133.3z M240,261.7c50.1,0,90.9-40.8,90.9-90.8c0-50.1-40.8-90.9-90.9-90.9s-90.8,40.8-90.8,90.9
		C149.2,220.9,189.9,261.7,240,261.7z M276.8,335.8c18.5-4.3,36.3-11.6,52.8-21.9c12.4-7.8,16.2-24.3,8.4-36.7
		c-7.9-12.5-24.3-16.3-36.8-8.4c-37.2,23.4-85.1,23.4-122.3,0c-12.4-7.9-28.9-4.1-36.7,8.4c-7.8,12.4-4.1,28.9,8.4,36.7
		c16.4,10.3,34.3,17.6,52.8,21.9l-50.8,50.8c-10.4,10.4-10.4,27.3,0,37.6c5.3,5.2,12,7.8,18.8,7.8s13.6-2.6,18.9-7.8l49.9-49.9
		l49.9,49.9c10.4,10.4,27.2,10.4,37.6,0c10.4-10.4,10.4-27.3,0-37.6L276.8,335.8z"/>
</g>
</svg>
