<svg id="Layer_1" xmlns="http://www.w3.org/2000/svg" viewBox="0 0 310 310"><style>.st0{fill:#111164}</style><g id="XMLID_826_"><path id="XMLID_827_" class="st0" d="M303 57.4c-4.9 2.2-9.9 4-15 5.5 6.1-6.8 10.7-14.9 13.5-23.7.6-2 0-4.1-1.6-5.4-1.6-1.3-3.9-1.4-5.7-.4-10.9 6.4-22.6 11.1-34.9 13.8-12.4-12.1-29.2-19-46.6-19-36.7 0-66.5 29.9-66.5 66.5 0 2.9.2 5.8.5 8.6-45.5-4-87.9-26.4-116.9-62-1-1.3-2.6-2-4.3-1.8-1.6.1-3.1 1-3.9 2.5-5.9 10.1-9 21.7-9 33.5 0 16 5.7 31.2 15.8 43.1-3.1-1.1-6.1-2.4-8.9-4-1.5-.9-3.4-.8-4.9 0-1.5.9-2.5 2.5-2.5 4.2v.9c0 23.9 12.9 45.5 32.6 57.2-1.7-.2-3.4-.4-5.1-.7-1.7-.3-3.5.3-4.7 1.6s-1.6 3.2-1 4.8c7.3 22.8 26.1 39.5 48.7 44.6-18.8 11.8-40.3 18-62.9 18-4.7 0-9.5-.3-14.1-.8-2.3-.3-4.5 1.1-5.3 3.3s0 4.6 2 5.9c29 18.6 62.6 28.4 97 28.4 67.8 0 110.1-31.9 133.8-58.8 29.5-33.4 46.4-77.7 46.4-121.4 0-1.8 0-3.7-.1-5.5 11.6-8.8 21.6-19.4 29.8-31.5 1.2-1.8 1.1-4.3-.3-6-1.5-1.8-3.9-2.3-5.9-1.4z"/></g></svg>