<svg fill="#fff" data-name="Слой 1" xmlns="http://www.w3.org/2000/svg" viewBox="0 0 40 39.24"><title>авто2</title><path d="M28.61 5.35l-.29-.06V2.54A2.54 2.54 0 0 0 25.78 0H2.54A2.54 2.54 0 0 0 0 2.54v5.81a2.54 2.54 0 0 0 2.54 2.54h1.58l-.32.55a2.54 2.54 0 0 0-.34 1.28v5.81a2.46 2.46 0 0 0 .35 1.28l.33.55H2.86A2.54 2.54 0 0 0 .32 22.9v5.81a2.54 2.54 0 0 0 2.54 2.54h6.47l.1.2c.13.25.25.49.39.73a16.66 16.66 0 0 0 .94 1.42 12.69 12.69 0 0 0 10.15 5.64h5.39c7.55 0 13.7-7.66 13.7-17.07.05-8.34-4.79-15.42-11.39-16.82zM.85 1.87A1.82 1.82 0 0 1 2.54.73h23.24a1.81 1.81 0 0 1 1.67 1.14l.2.5h-27zM27.59 3.1v2.1H20.9a11.38 11.38 0 0 0-6.35 2c-.27.17-.57.38-.92.65l-.1.07H.73V3.21H27.6zM2.54 10.17A1.82 1.82 0 0 1 .85 9.01l-.2-.5h12.18l-.74.64a1.64 1.64 0 0 0-.2.2c-.21.23-.39.44-.58.66l-.11.13H2.54zm4.79 9.85v.33h-1.3a1.82 1.82 0 0 1-1.82-1.82v-5.81a1.82 1.82 0 0 1 1.82-1.82h4.59l-.32.55-.13.22-.32.55a19.37 19.37 0 0 0-2.52 7.79zm.23 5.94a17.8 17.8 0 0 0 .4 1.74l.13.46h-7v-4.71h6.19v1.08c.12.48.19.92.28 1.48zm-6.39-3.73a1.82 1.82 0 0 1 1.69-1.14h4.43l-.05.41a5.59 5.59 0 0 0 0 .68v.55H.99zm7.25 8.3H2.86a1.82 1.82 0 0 1-1.69-1.14l-.2-.5h7.34l.09.23.11.3.17.45v.08l.26.53zm17.88 8h-5.39a11.66 11.66 0 0 1-8.86-4.52 16.74 16.74 0 0 1-1.11-1.49c-.16-.25-.3-.49-.45-.74a1 1 0 0 1-.13-.21c-.26-.47-.47-.89-.66-1.31a.47.47 0 0 1 0-.1c-.14-.31-.25-.56-.35-.83-.22-.57-.37-1-.5-1.48a17.86 17.86 0 0 1-.44-1.81c-.09-.44-.17-.93-.24-1.48 0-.25-.06-.52-.07-.78a.61.61 0 0 1 0-.18 12.29 12.29 0 0 1-.06-1.29v-.94l.37-.05h-.36v-.62c0-.26 0-.52.07-.77a18.07 18.07 0 0 1 2.83-8.12c.16-.26.33-.51.49-.73v-.2h.17l.08-.12.14-.19.1-.12c.27-.33.51-.59.75-.84s.48-.48.72-.69a2.58 2.58 0 0 1 .32-.27l2.11-1.46a10.66 10.66 0 0 1 1.65-.71 10.06 10.06 0 0 1 3.42-.58h6.39a10.12 10.12 0 0 1 1.5.26c6.09 1.47 10.5 8.22 10.5 16-.02 9.03-5.83 16.36-12.99 16.36z"/><path d="M26.3 8.01c-6.26 0-11.36 6.35-11.36 14.16s5.1 14.16 11.36 14.16 11.35-6.32 11.35-14.15S32.56 8.01 26.3 8.01zm0 27.6c-5.86 0-10.63-6-10.63-13.43S20.44 8.75 26.3 8.75s10.62 6 10.62 13.43-4.76 13.43-10.62 13.43z"/><path d="M32.52 28.46a.71.71 0 0 0-.24.22.72.72 0 0 1 .24-.22zm.4-.08a.71.71 0 0 1 .37.12.7.7 0 0 0-.37-.12zm.31.63a.36.36 0 0 0-.66-.14 9.39 9.39 0 0 1-1.45 1.65.37.37 0 0 0 0 .51.37.37 0 0 0 .51 0 10.22 10.22 0 0 0 1.56-1.78.36.36 0 0 0 .04-.24zm-.62-.58a.72.72 0 0 1 .21-.05.7.7 0 0 0-.21.05zm.21-.05zm-.21.05h-.09zm.01-14.42a.73.73 0 0 1 .2 0 .71.71 0 0 0-.2 0zm-.04.37a.36.36 0 0 0-.29.58 10.89 10.89 0 0 1 1.62 3.07.36.36 0 0 0 .34.25h.12a.36.36 0 0 0 .23-.46 11.56 11.56 0 0 0-1.73-3.27.36.36 0 0 0-.29-.17zm.33-.27a.72.72 0 0 1 .24.2.71.71 0 0 0-.24-.2zm-.38-.1a.71.71 0 0 0-.4.13.71.71 0 0 1 .4-.13zm.38.1h-.09zm-.38-.1zM21.2 12.76a.73.73 0 0 1 .18 0 .72.72 0 0 0-.18 0zm.28.06a.72.72 0 0 1 .24.17.72.72 0 0 0-.24-.17zm-.43-.04h-.09zm.13.34a.36.36 0 0 0-.24.09 10.23 10.23 0 0 0-1.65 1.95.36.36 0 0 0 .1.5.36.36 0 0 0 .5-.1 9.53 9.53 0 0 1 1.53-1.81.36.36 0 0 0-.24-.63zm0-.37h-.16a.73.73 0 0 1 .18 0zm.2.05h.09zm-.45 0a.72.72 0 0 0-.24.14.72.72 0 0 1 .24-.14zm-1.98 13.04a.71.71 0 0 0-.24-.33.71.71 0 0 1 .24.33zm-.67-.5a.72.72 0 0 1 .37.12.71.71 0 0 0-.37-.12zm1.98 4.81a.35.35 0 0 0 .23-.08.36.36 0 0 0 .05-.51 10.77 10.77 0 0 1-1.94-3.61.36.36 0 0 0-.35-.25h-.11a.36.36 0 0 0-.24.46 11.5 11.5 0 0 0 2.07 3.85.36.36 0 0 0 .29.14zm-1.61-4.69h.06zm-.6-.09a.71.71 0 0 1 .24 0 .73.73 0 0 0-.24 0z"/><path d="M26.32 33.59a7.3 7.3 0 0 0 2.73-.58 1.34 1.34 0 0 0 .81-.85c.46-1.34-.41-4-2.46-7.53l-.15-.26.23-.2a1.51 1.51 0 0 0 .22-.25l.26-.35.3.31c2.31 2.46 4.18 3.81 5.28 3.81.47 0 .79-.27 1-.83a13.38 13.38 0 0 0 .78-4.59c0-1.7-.66-2.5-2.09-2.5a11.28 11.28 0 0 0-4.61 1.51l-.38.2-.13-.41a2.59 2.59 0 0 0-.41-.76l-.16-.22.16-.22c2.34-3.21 3.48-5.7 3.22-7a1.17 1.17 0 0 0-.55-.81 7.4 7.4 0 0 0-4-1.18 7.29 7.29 0 0 0-2.74.53 1.34 1.34 0 0 0-.81.84c-.46 1.31.39 3.95 2.38 7.43l.15.26-.23.2a1.42 1.42 0 0 0-.22.27l-.25.38-.31-.33c-2.28-2.4-4.12-3.72-5.2-3.72-.32 0-.73.09-1 .83a13.67 13.67 0 0 0-.78 4.57c0 1.71.66 2.51 2.09 2.51a10.9 10.9 0 0 0 4.62-1.53l.37-.2.14.39a2.52 2.52 0 0 0 .42.72l.18.22-.16.23c-2.35 3.26-3.51 5.77-3.25 7.08a1.17 1.17 0 0 0 .55.81 7.64 7.64 0 0 0 4 1.22zm1.94-11v-.21l.18-.12a11.86 11.86 0 0 1 4.78-1.7c.72 0 1.37.14 1.37 1.77a12.68 12.68 0 0 1-.73 4.34.56.56 0 0 1-.13.23l-.12.12h-.17c-1.17-.13-3.47-2.26-5.1-4.05l-.14-.16zm-3.9-.76a.82.82 0 0 0 0 .16v.22l-.19.1a11.17 11.17 0 0 1-4.72 1.66c-.72 0-1.37-.14-1.37-1.79a13.16 13.16 0 0 1 .73-4.33 1 1 0 0 1 .06-.14l.11-.23h.25c1.15.14 3.43 2.25 5 4l.12.14zm-.89-9.25a.65.65 0 0 1 .42-.45 6.56 6.56 0 0 1 2.47-.47A6.76 6.76 0 0 1 30 12.73a.49.49 0 0 1 .15.32c.26 1.66-2.33 5.36-3.13 6.45l-.15.21-.25-.07a1.27 1.27 0 0 0-.36 0l-.28.09-.16-.26c-1.38-2.46-2.77-5.56-2.36-6.9zm1.69 10.29a2.39 2.39 0 0 1 .1-1.63.84.84 0 0 1 .11-.21 1.14 1.14 0 0 1 .94-.66 1.26 1.26 0 0 1 1.06.87 3.67 3.67 0 0 1 .14.41 2.64 2.64 0 0 1 .05.54 2.18 2.18 0 0 1-.25 1.06.33.33 0 0 1-.08.14 1.13 1.13 0 0 1-.92.62 1.18 1.18 0 0 1-1-.73 1.35 1.35 0 0 1-.16-.42zm.54 2l.13-.17h.79l.1.18c.91 1.57 3 5.39 2.47 7a.6.6 0 0 1-.41.44 6.57 6.57 0 0 1-2.47.49 6.81 6.81 0 0 1-3.63-1.07.47.47 0 0 1-.23-.39c-.2-1.34 1.54-4.24 3.24-6.52z"/></svg>