<svg fill="#fff" xmlns="http://www.w3.org/2000/svg" viewBox="0 0 35.9 40"><title>пиво2</title><path d="M26.1 15.5c.2 0 .3.1.4.3l1.8 14.4c.1.5.3 1 .8 1.3.5.4.8.9.8 1.5 0 1-.7 1.8-1.7 1.8H9.5c-.6.1-1 .6-1 1.2.1.5.5.9 1 1h12.4c.2 0 .3.2.3.4s-.1.3-.3.3H9.5c-1-.1-1.8-1-1.7-2 .1-.9.8-1.6 1.7-1.7h18.6c.6 0 1-.5 1-1.1 0-.4-.2-.8-.5-1-.3-.2-.5-.5-.7-.8-.2-.3-.3-.6-.3-1l-1.8-14.4c-.1 0 .1-.2.3-.2z"/><path d="M3.5 18c.7-.2 1.3-.7 1.7-1.3.8-1.1.5-3.7.5-3.7 0-.2.1-.3.3-.4h.1c.1 0 .2.1.3.1.6.8 1.4 1.5 2.3 2h.1c.2 0 .4-.2.4-.4 0-.1 0-.2-.1-.2-.4-.5-.6-1-.6-1.6 0-.5.1-.9.4-1.4.1-.1.1-.3-.1-.4 0 0-.1 0-.1-.1-.1 0-.2-.1-.3-.2-.2-.3-.2-.7-.1-1.1.1-.3.3-.6.5-.8.2-.1.2-.3.1-.5-.1-.3-.3-.6-.4-1v-.3c-.1-.9.1-1.7.6-2.4s1.3-1.2 2.2-1.3h.4c.6 0 1.2.2 1.8.5.1 0 .1.1.2.1h.1c.1 0 .2-.1.2-.3.4-1.9 2.1-3.2 4-3.2.9 0 1.7.3 2.4.8.4.3.8.8 1.1 1.3.1.2.3.2.5.1s.3-.1.5-.2h.2c.4 0 .8.2 1.1.5.1.1.2.1.3.1.1 0 .2 0 .3-.1.7-.5 1.6-.9 2.6-1.1h.7c2.6 0 4.8 2.2 4.7 4.8 0 1-.4 2-1 2.9-.3.4-.6.7-1 1-.2.1-.2.4-.1.5l.1.1c.6.5.9 1.2.9 1.9 0 .8-.4 1.5-1 2-.2.2-.4.4-.6.7-.1.3-.2.5-.2.8l2 14.5c0 .3.2.6.4.9.2.3.6.6 1 .7 1.7.5 2.8 2.1 2.8 3.8 0 2.2-1.8 4-4 4H8.3c-2.2 0-4-1.8-4-4 0-1.3.7-2.6 1.8-3.3.2-.1.2-.3.1-.5l-.2-.2c-.2 0-.4-.1-.6-.1-1-.3-4.9-2.1-5.4-6.3-.2-2.1.4-5 2.1-6.5.4-.4.8-.8 1.4-1.2zm27.3-9.4c.7-.8 1-1.9.8-3-.1-1.1-.7-2-1.5-2.7-.7-.5-1.6-.8-2.4-.8h-.6c-1.3.2-2.5 1-3.1 2.2v.1c-.1.1-.2.2-.3.2h-.2c-.2-.1-.2-.3-.2-.5 0 0 0-.1.1-.1.1-.2.1-.3.1-.5-.1-.4-.4-.6-.7-.6h-.1c-.4 0-.7.3-.7.7v.1c0 .2-.1.4-.3.4h-.1c-.2 0-.3-.1-.3-.3v-.4c-.1-.8-.6-1.6-1.2-2.1-.6-.4-1.3-.7-2-.7h-.4c-1.8.2-3.1 1.9-2.8 3.7 0 0 0 .2.3 1.1v.2c-.1.3-.2.4-.4.5h-.1c-.2 0-.3-.1-.3-.3 0 0 0-.1-.1-.2-.3-1.2-1.3-2-2.5-2.1h-.3c-.7.1-1.3.4-1.7 1-.5.6-.7 1.3-.6 2v.2c.2.7.7 1.3 1.3 1.7h.1c.2.1.3.3.2.5-.1.1-.2.2-.3.2h-.3c-.2-.1-.4-.2-.7-.2h-.2c-.1.1-.3.3-.4.5-.1.2-.1.4 0 .6v.1c0 .2.2.3.4.3 0 0 .1 0 .1-.1.6-.3 1.1-.5 1.6-.5h1.6c.1 0 .2 0 .3-.1.6-.7 1.4-1.1 2.3-1.3.2 0 .5-.1.7-.1.9 0 1.7.3 2.4.8.1.1.1.2.1.3v.2c-.1.1-.2.2-.3.2-.1 0-.1 0-.2-.1-.6-.4-1.2-.6-1.9-.6h-.6c-.9.1-1.6.6-2.1 1.4 0 .1-.1.1-.1.2-.3.5-.5 1.1-.5 1.7 0 .2.2.4.4.4h.1c2.5-.9 5.1-1.4 7.7-1.3 2.4 0 4.7.3 7 .8h.1c.1 0 .2 0 .4-.1s.3-.3.4-.5c0-.2 0-.4-.1-.6-.1-.2-.3-.3-.5-.3-.1 0-.1 0-.2-.1s-.1-.2-.1-.3c0-.2.2-.3.3-.4.3 0 .6-.1.9-.2.6-.2 1.2-.6 1.7-1.2zM4.9 36.4c.3 1.6 1.7 2.8 3.4 2.8h23.2c1.7 0 3.1-1.1 3.4-2.8.3-1.6-.7-3.2-2.2-3.7-.6-.2-1.2-.6-1.5-1.2-.2-.3-.3-.6-.3-1l-2-14.4c-.1-.5 0-.9.2-1.4.2-.4.4-.7.8-1h.1c.8-.6.9-1.7.3-2.5-.1-.1-.2-.2-.3-.2h-.1c-.2 0-.3.2-.3.4v.4c-.1.4-.3.7-.7.9-.2.1-.5.2-.8.2h-.4c-2.2-.5-4.5-.7-6.8-.7-2.8-.1-5.7.5-8.3 1.6h-.4c-.1 0-.2-.1-.2-.2l-.1-.4c-.1-.7-.1-1.4.2-2.1.1-.2 0-.4-.2-.5h-.8c-1 0-1.8.8-1.8 1.8 0 .6.3 1.1.8 1.5.3.3.6.6.8 1 .1.1.2.2.3.2h.5c.9.1 1.6.8 1.7 1.7 0 .5-.1 1-.3 1.5-.2.8-.9 1.3-1.7 1.2h-.5c-.2 0-.3.1-.4.3l-1 6.9c0 .2.1.4.3.4l.8-.1h.4c.5-.1 1-.2 1.5-.2h.1c.9.1 1.6.8 1.7 1.6l.1.8c.1.8-.4 1.6-1.2 1.8-1.5.6-3.1.9-4.7 1-.1 0-.2 0-.2.1-.3.3-.6.5-1 .6-1.6.6-2.6 2.1-2.4 3.7zm4.9-16.7c0-.2-.1-.4-.3-.4-.3-.1-.7-.1-1-.1-.4 0-.8.1-1.2.3-.9.5-1.9 2.8-2 4.7v.5c-.1.9.2 1.7.8 2.3.5.3 1.2.5 1.8.4h.5c.2 0 .3-.1.3-.3l1.1-7.4zM.6 25.5c.3 2.7 2.2 4.9 4.8 5.6.8.2 1.6.3 2.4.3.5 0 1.1 0 1.6-.1 1.2-.2 2.4-.5 3.5-.9.5-.1.8-.6.8-1.1l-.1-.8c-.1-.5-.5-.9-1-1-.5 0-1.1.1-1.6.2l-.5.1-.8.2c-.5.1-1 .1-1.5.1h-.3c-.8 0-1.5-.1-2.1-.5-.9-.9-1.4-2.2-1.1-3.4.1-2 1.1-4.6 2.4-5.3.5-.2 1-.4 1.5-.4.4 0 .7 0 1 .1h.4c.3.1.7.1 1 .2h.3c.5.1.9-.3 1-.7.1-.4.2-.8.2-1.2 0-.4-.5-.9-1-.9h-.1c-.2 0-.8-.1-1.4-.2-.5-.1-1-.2-1.5-.4-.5-.4-1-.6-1.4-1-.1-.1-.2-.1-.2-.1h-.1c-.1.1-.2.2-.2.3 0 .8-.3 1.7-.7 2.4-.5.7-1.2 1.2-1.9 1.5h-.1c-.5.2-1 .5-1.4.9C.9 20.8.4 23.5.6 25.5z"/></svg>