<svg fill="#fff" data-name="Слой 1" xmlns="http://www.w3.org/2000/svg" viewBox="0 0 33.39 40"><title>дети2</title><path d="M29.89 33.01H28l.34-.58a2.67 2.67 0 0 0 .38-1.36A2.72 2.72 0 0 0 26 28.35h-1.11l.35-.59a2.67 2.67 0 0 0 .39-1.39 2.72 2.72 0 0 0-2.72-2.72h-3l.86-.69a6.56 6.56 0 0 0 2.5-5.13 6.46 6.46 0 0 0-1.86-4.57l-.09-.09-.16-.17.08-.22.09-.26v-.14l3.06-8.7a2.77 2.77 0 0 0-.2-2.27A2.81 2.81 0 0 0 22.32.06a3.56 3.56 0 0 0-.54-.05 2.77 2.77 0 0 0-2.69 2.22l-1.66 8.37-.07.34-.07.34h-1.42l-.07-.34-.07-.34-1.66-8.37A2.77 2.77 0 0 0 11.38.01a3.62 3.62 0 0 0-.56.06 2.81 2.81 0 0 0-1.85 1.35 2.77 2.77 0 0 0-.2 2.27l3.06 8.7.08.24.09.26.08.22-.16.17-.05.05a6.49 6.49 0 0 0-1.8 4.51 6.56 6.56 0 0 0 2.49 5.13l.86.69h-3a2.72 2.72 0 0 0-2.72 2.72 2.67 2.67 0 0 0 .39 1.39l.35.59H7.31a2.72 2.72 0 0 0-2.72 2.72 2.67 2.67 0 0 0 .38 1.36l.34.58H3.49a3.5 3.5 0 0 0 0 7h26.4a3.5 3.5 0 1 0 0-7zm-11.71-22l.07-.33 1.64-8.3a2 2 0 0 1 1.93-1.6 2.69 2.69 0 0 1 .38 0 2 2 0 0 1 1.36 1 2 2 0 0 1 .14 1.63l-2.9 8.31-.11.29-.17.46-.41-.27a5.84 5.84 0 0 0-1.59-.72l-.35-.1zM9.55 3.4a2 2 0 0 1 .14-1.63 2 2 0 0 1 1.33-1 2.77 2.77 0 0 1 .41 0 2 2 0 0 1 1.93 1.6l1.66 8.36.06.33.07.34-.33.1a6.61 6.61 0 0 0-1.67.76l-.41.25-.16-.45-.11-.29zm1.34 14.43a5.75 5.75 0 0 1 1.8-4.19 5.67 5.67 0 0 1 3.8-1.61 1 1 0 0 1 .23 0h.09a5.85 5.85 0 0 1 5.73 5.82 5.84 5.84 0 0 1-5.74 5.82h-.16a5.84 5.84 0 0 1-5.75-5.84zm-.39 6.59h12.39a1.94 1.94 0 1 1 0 3.88H10.48a1.94 1.94 0 1 1 0-3.88zm-3.11 4.69h18.64a1.94 1.94 0 0 1 0 3.88H7.37a1.94 1.94 0 0 1 0-3.88zm22.5 10.11H3.49a2.72 2.72 0 0 1 0-5.44h26.4a2.72 2.72 0 1 1 0 5.44z"/><path d="M18.89 18.32c-.29-.6-.67-.81-2.19-.81h-.12c-1.5 0-1.87.21-2.16.81s.17 1.87 1.26 2.84a1.48 1.48 0 0 0 1.95 0c1.13-.98 1.65-2.14 1.26-2.84zm-1.72 2.33a.79.79 0 0 1-1 0c-1-.9-1.26-1.73-1.11-2s.34-.43 1.58-.43h.16c1.12 0 1.36.13 1.51.43s-.08 1.1-1.1 2z"/></svg>