<svg fill="#fff" data-name="Слой 1" xmlns="http://www.w3.org/2000/svg" viewBox="0 0 40.01 40"><title>клининг2</title><path d="M31.91 24.42zm-3.69-.57l-.13-.05zm2.03.45l-.42-.06zM18.46 10.74h-.11zm19.31 5.04v-.16l.6-3.42a.32.32 0 0 0-.07-.29.37.37 0 0 0-.28-.14h-2.69v-.36a2.55 2.55 0 0 0-5.09 0v.36h-9.45v-.36a2.55 2.55 0 0 0-5.09 0v.36H13a.35.35 0 0 0-.27.13.33.33 0 0 0-.08.29l2.4 13.79.13.77-.68-.4a7.31 7.31 0 0 0-.73-.36l-.34-.15.15-.34a2.53 2.53 0 0 0-2-3.59h-.26v-.26L7.64.93A1.08 1.08 0 0 0 6.57.02h-.18L4.94.27a1.1 1.1 0 0 0-.7.45 1.06 1.06 0 0 0-.18.81l3.58 20.16.05.29-.27.11a2.58 2.58 0 0 0-1.58 2.36 2.54 2.54 0 0 0 .24 1.07l.16.34-.34.15a9.84 9.84 0 0 0-5.88 9 10 10 0 0 0 .58 3.33 2.62 2.62 0 0 0 1 1.2 2.3 2.3 0 0 0 1.36.47h13.79a2.78 2.78 0 0 0 1.49-.49 2.4 2.4 0 0 0 .92-1.31 3.84 3.84 0 0 0 .11-.37l.06-.28h14.39a.35.35 0 0 0 .35-.29l2.06-12.19v-.22l.21-.07c2.06-.67 3.25-1.75 3.54-3.22s-.4-3.5-2.07-5.67zm-6.79-4.43a1.82 1.82 0 0 1 3.64 0v.37h-3.65zm-12.73-1.8a1.81 1.81 0 0 1 1.82 1.8 1.79 1.79 0 0 1-.18.77 1 1 0 0 1-.08.14 1.89 1.89 0 0 1-.4.48l-.48.4-.15-.58q-.11-.62-.18-1.23a.38.38 0 0 0-.38-.32.36.36 0 0 0-.34.4 12.3 12.3 0 0 0 .18 1.22l.14.66-.61-.24h-.05a1.6 1.6 0 0 1-.23-.13 1.9 1.9 0 0 1-.28-.21l-.18-.19a1.79 1.79 0 0 1-.2-.32 1.46 1.46 0 0 1-.09-.2 1.8 1.8 0 0 1-.11-.61 1.82 1.82 0 0 1 1.8-1.79zM4.77 1.35L4.71.99l.36-.06L6.5.68l.36-.06.06.36 3.62 20.44.08.43H8.4l-.05-.3zm2.55 21.57a1.75 1.75 0 0 1 1.06-.35h2.91a1.82 1.82 0 0 1 1.82 1.82 1.78 1.78 0 0 1-.26.91l-.14.24-.27-.07a9.89 9.89 0 0 0-5.22 0l-.27.07-.14-.24a1.78 1.78 0 0 1-.26-.91 1.82 1.82 0 0 1 .76-1.42zm-5.89 8.61a9.08 9.08 0 0 1 5.18-5.08h.06a8.83 8.83 0 0 1 6.32 0h.06a8.55 8.55 0 0 1 2.19 1.2 8.44 8.44 0 0 1 1.87 1.87 4.48 4.48 0 0 1 .26.39l.11.19.33.51-.6.05-5.35.48h-.32l-.07-.31-.29-1.3a.37.37 0 0 0-.35-.29h-.08a.36.36 0 0 0-.28.43l.25 1.12.09.4h-.41l-8.6.77-.59.05zm5.18 7.69h-3.6a1.82 1.82 0 0 1-1.16-.42 1.69 1.69 0 0 1-.58-.89 8.53 8.53 0 0 1-.31-4.8l.05-.26h.27l1.34-.12h.32l.07.31.94 4.27a.37.37 0 0 0 .35.29h.08a.36.36 0 0 0 .28-.43l-.9-4.09-.09-.4h.41l1.18-.1h.32l.07.31 1.33 6 .1.44zm12.2-2.77a8.65 8.65 0 0 1-.36 1.46v.07a1.75 1.75 0 0 1-.63.86 1.77 1.77 0 0 1-1.11.38h-6.18l-.06-.29-.9-4.1a.37.37 0 0 0-.36-.29h-.08a.36.36 0 0 0-.28.43l.83 3.79.1.44h-2l-.06-.29-1.35-6.17-.09-.4h.41l3.94-.35h.32l.07.31 1.1 5a.37.37 0 0 0 .35.29h.08a.36.36 0 0 0 .28-.43l-1.05-4.81-.09-.4h.41l5.76-.51h.27l.1.25a9 9 0 0 1 .68 3.39 9.81 9.81 0 0 1-.11 1.42zm16.53-10.89l-1.91 10.9-.05.3h-13.9l.07-.42a9.08 9.08 0 0 0 .11-1.4 9.74 9.74 0 0 0-3.52-7.52l-.1-.09v-.13l-2.49-14.33-.07-.43h2.49l.11.18a2.57 2.57 0 0 0 2 1.26h.26l.07.25a15.83 15.83 0 0 0 5.81 8.8 12.74 12.74 0 0 0 7.67 2.51 14.84 14.84 0 0 0 3-.33l.52-.11zm.26-1.54v.23l-.22.06c-.17 0-.34.09-.51.12a14.36 14.36 0 0 1-2.9.31 12.06 12.06 0 0 1-7.27-2.36 15.13 15.13 0 0 1-5.5-8.3l-.08-.29.27-.13a2.6 2.6 0 0 0 1.13-1l.11-.18h17l-.07.42-.23 1.37-.34 1.85zm3.64-2.64a3.46 3.46 0 0 1-2.28 2.38l-.62.27.12-.67 1-5.79.16-.94.5.82a5.65 5.65 0 0 1 1.1 3.98zM18.87 11.07l-.06-.07zm7.81 12.15l-.38-.2zm-8.07-12.41l.09.05zM32.9 24.35h.46z"/><path d="M18.13 10.69a.75.75 0 0 1 .19 0h-.13zm.83.66a.69.69 0 0 0-.09-.26.69.69 0 0 1 .09.26zm-.35-.54l-.14-.08zm.09.06a.73.73 0 0 1 .12.13.73.73 0 0 0-.12-.13zm7.59 12.15a12 12 0 0 1-1.44-.89 12 12 0 0 0 1.44.89zm3.54 1.22a11.7 11.7 0 0 1-1.61-.38 11.7 11.7 0 0 0 1.61.38zm3.52.11c.46 0 .93-.12 1.4-.22-.47.09-.94.16-1.4.22zm-1.62.06a12.38 12.38 0 0 1-1.48-.11 12.34 12.34 0 0 0 1.48.11zm1.17-.06h-.91c.29.07.6 0 .91 0zm-4.77-.55a11.59 11.59 0 0 1-1.41-.59 11.59 11.59 0 0 0 1.41.59z"/></svg>