<svg fill="#fff" data-name="Слой 1" xmlns="http://www.w3.org/2000/svg" viewBox="0 0 40 29.78"><title>обувь2</title><path d="M28.08 26.54a.36.36 0 0 0-.36.36V28a.365.365 0 1 0 .73 0v-1.1a.36.36 0 0 0-.37-.36zm-.64-15.84a.36.36 0 0 0 .24-.64l-5.83-5.13a.36.36 0 0 0-.24-.09.36.36 0 0 0-.36.39.36.36 0 0 0 .12.25l5.86 5.13a.36.36 0 0 0 .21.09zm-1.86 4a.36.36 0 0 0 .36-.37.36.36 0 0 0-.11-.25l-5.33-5a.36.36 0 0 0-.25-.1.36.36 0 0 0-.26.11.36.36 0 0 0 0 .51l5.33 5a.36.36 0 0 0 .26.1zm-9.05.37a.37.37 0 0 0-.36.3.36.36 0 0 0 .3.42L23.58 17a.37.37 0 0 0 .4-.3.36.36 0 0 0-.3-.42l-7.11-1.21zm-1.3-7.76a.36.36 0 0 0 .18-.68L9.59 3.28a.363.363 0 1 0-.36.63l5.82 3.35a.36.36 0 0 0 .18.05zM9.06 6.6a.36.36 0 0 0-.51-.07.37.37 0 0 0-.07.51l4.44 5.74a.367.367 0 1 0 .58-.45zm-.05-.45h.09zM8.2 9.08a.363.363 0 0 0-.6.41l3.56 5.16a.363.363 0 1 0 .6-.41z"/><path d="M28.37 5.54a.37.37 0 0 0-.48-.18L20.09 9a.365.365 0 1 0 .31.66l7.8-3.64a.36.36 0 0 0 .17-.48zm.09-.43a.71.71 0 0 1 .24.28.7.7 0 0 0-.24-.28zM28.08 5a.73.73 0 0 1 .3.09.72.72 0 0 0-.3-.09zm-.34 0a.73.73 0 0 1 .29-.06.72.72 0 0 0-.29.06zm.3 0zm.34.06h.08zm-9.17 6.52a.36.36 0 0 0-.26-.11.36.36 0 0 0-.26.62l4.69 4.81a.36.36 0 0 0 .51 0 .36.36 0 0 0 0-.51zm-3.25-7.87h-.13L8.64 6.46a.36.36 0 0 0 .13.7h.13l7.19-2.75a.36.36 0 0 0-.13-.7zM11.38 14.8h.07a.37.37 0 0 0 .36-.29.36.36 0 0 0-.28-.43l-5-1h-.08a.362.362 0 0 0-.07.72z"/><path d="M23.12.55a.39.39 0 0 0 0 .13c0 2-.42 8.88-4.08 13.23a9 9 0 0 1-3.69 3.08 9.88 9.88 0 0 1-1.56.43 30.61 30.61 0 0 0-3.31.9 4.82 4.82 0 0 0-2.6 1.53 4 4 0 0 0-.76 1.87l-.1.58.2.11h.07a29.32 29.32 0 0 0 7.69 3 19.71 19.71 0 0 0 4.74.65h.5c.71 0 1.85-.15 6.31-1.43 1.35-.39 2.71-.79 4-1.21h.49c3.89 0 7.47-3.09 7.62-3.22l.18-.16v-.24c-.22-1.45-.92-6.14-1.08-7.86-.2-2.06-.48-8.32-.48-8.39a.36.36 0 0 0-.36-.35h-6.95V.61a.36.36 0 0 0-.36-.36h-6.16a.33.33 0 0 0-.31.3zM36.2 4h.35v.35c.08 1.77.29 6.07.45 7.73s.77 5.82 1 7.53v.21l-.17.13a12.45 12.45 0 0 1-6.59 2.8h-.28l-.08-.27a4.56 4.56 0 0 0-2.24-2.8 6.6 6.6 0 0 0-3.14-.69 13.74 13.74 0 0 0-4.09.7l-.39.13-.08-.41c-.1-.53-.19-1.12-.28-1.69v-.1c-.07-.48-.15-1-.23-1.41v-.2l.16-.13a17.45 17.45 0 0 0 5.83-11.56v-.33h9.7zM23.78 1.4v-.35h5.42v2.22h-3.07a.36.36 0 0 0-.36.36 17 17 0 0 1-5.93 12 .36.36 0 0 0-.13.35c.11.58.21 1.21.3 1.84.14.94.29 1.88.47 2.63a.36.36 0 0 0 .35.28h.13a13.06 13.06 0 0 1 4.59-.93 5.93 5.93 0 0 1 2.81.61 3.79 3.79 0 0 1 1.77 2.07l.14.36-.37.12c-.95.3-2.17.67-3.64 1.09-4.18 1.2-5.45 1.38-6.13 1.4h-.55a18.38 18.38 0 0 1-4.43-.61h-.08a28.56 28.56 0 0 1-7.12-2.72l-.24-.13.06-.27a3.28 3.28 0 0 1 .61-1.33 4.26 4.26 0 0 1 2.25-1.29 29.83 29.83 0 0 1 3.23-.88 10.75 10.75 0 0 0 1.68-.46 9.71 9.71 0 0 0 4-3.3c3.5-4.19 4.13-10.46 4.24-13.02z"/><path d="M27.5 20.4a4.18 4.18 0 0 1 .71.29 4.18 4.18 0 0 0-.71-.29zm-.79-.18a5.6 5.6 0 0 1 .56.12 5.58 5.58 0 0 0-.56-.12zm-5.86.86a.72.72 0 0 1-.32-.08.72.72 0 0 0 .32.08zM40 25.37v-5a.36.36 0 0 0-.36-.36.35.35 0 0 0-.23.09l-.14.11v4.85l-.26.08c-1.51.45-3.87 1.22-5.14 1.64l-.47.16v-1.67l-.07-.08-.07-.05h-.3l-4.89 1.49a.36.36 0 0 0-.24.45.38.38 0 0 0 .12.15l.16.15.46-.14 3.72-1.13.46-.14v1.58a.37.37 0 0 0 .15.29.36.36 0 0 0 .21.07h.11c.49-.16 4.78-1.59 6.57-2.1a.36.36 0 0 0 .21-.44zm-19.53 4.41a22 22 0 0 0 7.74-1.4.36.36 0 0 0 .21-.47.35.35 0 0 0-.09-.13l-.17-.16-.43.15a20.88 20.88 0 0 1-7.25 1.28 23.67 23.67 0 0 1-6.82-1 25.28 25.28 0 0 1-6.87-3.2l-.16-.11v-2.56l-.14-.15a.35.35 0 0 0-.22-.09.36.36 0 0 0-.36.36v1.39l-.43-.08-4.44-.83-.3-.06v-2.23l.42.06 4 .59a.38.38 0 0 0 .4-.31.36.36 0 0 0-.31-.41l-4.13-.61-.38-.06.08-.38a2.89 2.89 0 0 1 .76-1.51 3 3 0 0 1 1-.6 10.64 10.64 0 0 0 1.21-.59 9.82 9.82 0 0 0 1.89-1.43.36.36 0 0 0 0-.51.36.36 0 0 0-.26-.11.37.37 0 0 0-.25.1 9.07 9.07 0 0 1-1.75 1.32 9.83 9.83 0 0 1-1.11.54 3.77 3.77 0 0 0-1.27.76 4 4 0 0 0-1.07 2.61V23a.36.36 0 0 0 .3.36l5.09.95h.51v.64a.36.36 0 0 0 .16.3 26 26 0 0 0 7.4 3.52 24.35 24.35 0 0 0 7.04 1.01zm1.57-9.06l.31-.09zm3.74-.58h.67q-.33.01-.67 0zm-.21-.01zm-1.42.11h.37zm-1.09.2l.38-.08zM23.01.12h.12c.04 0-.08-.02-.12 0zm.43 20.24l.71-.12zm1.08-.17c.28 0 .57 0 .85-.05-.28.01-.52.02-.85.05zm-2.17.44l.71-.18zm-1.23.37c.29-.11.6-.22.92-.32-.32.14-.63.24-.92.32zM22.77.44a.71.71 0 0 1 .25-.32.71.71 0 0 0-.25.32zM23.4 0a.63.63 0 0 0-.26.08.63.63 0 0 1 .27-.08zm3.05 20.18h.26zm.82.16l.23.06zm-6.15.66a.72.72 0 0 1-.28 0 .72.72 0 0 0 .28 0zm4.49-.87zM6.59 14a.36.36 0 0 0 .28.6.36.36 0 0 0 .28-.13c3.5-4.16 4.12-10.5 4.23-13v-.35h4.64l-1.37.69a.36.36 0 0 0-.12.1.37.37 0 0 0-.07.31c0 .06 1.32 5.82-4.44 10.49a.36.36 0 0 0-.09.46c.28.5.54 1 .8 1.56a14.29 14.29 0 0 0 1.07 2 .37.37 0 0 0 .3.15.36.36 0 0 0 .3-.57 13.79 13.79 0 0 1-1-1.86c-.17-.36-.35-.73-.54-1.09l-.13-.25.22-.19a11.81 11.81 0 0 0 4.36-10v-.4h5.29a.365.365 0 1 0 0-.73h-4.62l1.4-.69a.36.36 0 0 0-.16-.68h-6.14a.36.36 0 0 0-.36.33v.13c-.09 2.03-.5 8.84-4.13 13.12z"/></svg>