<svg fill="#fff" data-name="Слой 1" xmlns="http://www.w3.org/2000/svg" viewBox="0 0 30.6 40"><title>комп.техника2</title><path d="M27.96 6.59a.37.37 0 0 0-.33-.21.35.35 0 0 0-.15 0 .36.36 0 0 0-.18.48c3 6.47 3.4 10.85 1 12.34a5.64 5.64 0 0 1-2.73.68 4.6 4.6 0 0 1-1.23-.16 3.16 3.16 0 0 1-2.05-1.67c-1.06-2.06-.37-3.81.42-5.83.86-2.21 1.84-4.71.53-8-1-2.44-4-4.27-7.11-4.27a7.46 7.46 0 0 0-1.39.13c-1.57.3-5.26 1.65-5.72 7.64v.31h-.31a9.51 9.51 0 0 0-8.72 9.43v13a9.47 9.47 0 1 0 18.93 0v-13a9.49 9.49 0 0 0-8.81-9.43h-.37v-.37c.44-5.2 3.4-6.53 5.12-6.86a6.69 6.69 0 0 1 1.26-.12c2.79 0 5.55 1.64 6.42 3.82 1.2 3 .32 5.27-.53 7.46s-1.59 4.08-.39 6.44a3.92 3.92 0 0 0 2.51 2 5.31 5.31 0 0 0 1.41.18 6.47 6.47 0 0 0 3.12-.79c1.98-1.14 3.37-4.42-.7-13.2zM9.84 12.43V8.79h.4a8.79 8.79 0 0 1 8 8.7v13a8.74 8.74 0 1 1-17.48 0v-13a8.7 8.7 0 0 1 7.9-8.7h.47v3.9l-.24.09a1.87 1.87 0 0 0-1.25 1.77v2.05a1.84 1.84 0 0 0 1.25 1.75l.25.08v4.36a.365.365 0 1 0 .73 0v-4.36l.25-.08a1.84 1.84 0 0 0 1.25-1.75v-2.05a1.87 1.87 0 0 0-1.25-1.77l-.24-.09zm.71 1.73a1.19 1.19 0 0 1 .06.38v2.05a1.19 1.19 0 0 1-.06.38 1.14 1.14 0 0 1-2.14 0 1.19 1.19 0 0 1-.06-.38v-2.05a1.19 1.19 0 0 1 .06-.38 1.13 1.13 0 0 1 2.14 0z"/></svg>