<svg id="Слой_1" fill="#fff" data-name="Слой 1" xmlns="http://www.w3.org/2000/svg" viewBox="0 0 40 40"><defs><style>.cls-1{fill:none}</style></defs><title>цветы2</title><path d="M738.35 388a.39.39 0 0 0-.35.55l1.28 2.67a.39.39 0 0 0 .35.22.39.39 0 0 0 .35-.55l-1.28-2.67a.39.39 0 0 0-.35-.22zm9.81 0a.39.39 0 0 0-.35.22l-1.28 2.67a.39.39 0 0 0 .35.55.39.39 0 0 0 .35-.22l1.28-2.67a.39.39 0 0 0-.35-.55zm-4.91 1.88a.39.39 0 0 0 .39-.39v-3.1a.39.39 0 0 0-.77 0v3.1a.39.39 0 0 0 .38.39z" transform="translate(-724 -386)"/><path d="M742.94 419c2.24-4 1.37-7.07.89-8.21l-.19-.46h.49c5.21-.49 9.29-5.35 9.29-11.07a11.59 11.59 0 0 0-3-7.85.39.39 0 0 0-.29-.13.39.39 0 0 0-.29.13c-.26.29-1.37 1.81-2.67 3.61l-.07.1-.2.27-.29.4-.3-.39c-.58-.77-1.43-1.82-2.25-2.85l-.07-.09-.48-.6a.38.38 0 0 0-.3-.15.41.41 0 0 0-.31.14l-2.9 3.58-.29.37-.28-.38c-.72-1-1.93-2.63-2.48-3.39l-.09-.13-.31-.43a.39.39 0 0 0-.29-.16.4.4 0 0 0-.3.13 11.61 11.61 0 0 0-2.9 7.77c0 5.82 4.16 10.69 9.48 11.09h.26l.06.25a.38.38 0 0 0 0 .11s1.94 3.31-.66 7.93a6.28 6.28 0 0 0 .7 7.26.39.39 0 0 0 .55 0 .39.39 0 0 0 0-.55 5.55 5.55 0 0 1-.51-6.3zm.31-9.44c-5.18 0-9.4-4.64-9.4-10.34a10.86 10.86 0 0 1 2.09-6.5l.29-.4.29.4c1.31 1.8 2.67 3.67 2.92 4a.36.36 0 0 0 .28.14.4.4 0 0 0 .32-.14L743 393l.28-.35.28.35c.83 1 2.37 2.94 2.79 3.6a.39.39 0 0 0 .31.18.38.38 0 0 0 .31-.16l.83-1.15v-.06c.6-.84 1.49-2.06 2.06-2.83l.29-.39.29.39a10.83 10.83 0 0 1 2.17 6.61c.04 5.73-4.17 10.36-9.36 10.36z" transform="translate(-724 -386)"/><path d="M754.88 417.25a.39.39 0 0 0-.28-.21 20.46 20.46 0 0 0-3.24-.28c-3 0-5.44.84-6.55 2.23a2.2 2.2 0 0 0-.43 2.22 3.33 3.33 0 0 0 3 1.66h.23c1.34 0 4.72-.51 7.24-5.28a.39.39 0 0 0 .03-.34zm-1.25 1c-2.25 3.52-4.94 3.9-6 3.9h-.2a2.68 2.68 0 0 1-2.36-1.18 1.41 1.41 0 0 1 .32-1.45c1-1.22 3.18-1.94 5.92-1.94a18.56 18.56 0 0 1 2 .12l.58.06zM741.36 416c-.14-1.55-2.05-3.3-5.12-4.69a.39.39 0 0 0-.16 0 .39.39 0 0 0-.38.32c-.44 2.55.46 5.27 2.09 6.31a2.37 2.37 0 0 0 1.29.4 2.32 2.32 0 0 0 1.33-.44 2 2 0 0 0 .95-1.9zm-1.36 1.25a1.57 1.57 0 0 1-.9.3 1.61 1.61 0 0 1-.87-.28c-1.1-.7-1.87-2.57-1.84-4.45v-.59l.52.27c2.22 1.16 3.6 2.5 3.7 3.59a1.23 1.23 0 0 1-.61 1.16z" transform="translate(-724 -386)"/><path class="cls-1" d="M0 0h40v40H0z"/></svg>