<svg fill="#fff" data-name="Слой 1" xmlns="http://www.w3.org/2000/svg" viewBox="0 0 40 37.53"><title>доставка еды2</title><path d="M9.17 12.76a2.79 2.79 0 0 1 .68.1 2.77 2.77 0 0 0-.68-.1zm.27 19.33zm1.2-18.9a2.76 2.76 0 0 0-.64-.29 2.77 2.77 0 0 1 .64.29zm-1.19 1.09a1.27 1.27 0 0 1 .39.15 1.27 1.27 0 0 0-.39-.15zm-.31-.07h-.21a1.47 1.47 0 0 1 .38 0z"/><path d="M34.46 3.28h-.18a5.52 5.52 0 0 0-2.23.56l-.33.16-.16-.34A6.65 6.65 0 0 0 25.5-.06a6.72 6.72 0 0 0-5.73 3.14l-.16.26-.29-.11a5.41 5.41 0 0 0-2-.4 5.52 5.52 0 0 0-5.52 5.52 1.57 1.57 0 0 0 0 .33l.1.44H9.47a4.23 4.23 0 0 0-3.19 1.46 4.18 4.18 0 0 0-1 3.36l1.27 8.55.05.34-.34.07c-1.19.25-2.36.54-3.13.78a1.42 1.42 0 0 0-.87.94l-.08.25h-.73A1.53 1.53 0 0 0-.08 26.4v2a1.53 1.53 0 0 0 1.53 1.53h1.18v.33l.17 1.89a1.28 1.28 0 0 0 1.25 1.21h.63l1-.05h.45l-.07.44a2.87 2.87 0 0 0 0 .48 3.275 3.275 0 0 0 6.55 0 3.17 3.17 0 0 0-.07-.63l-.09-.44h8.3l-.09.44a2.83 2.83 0 0 0-.05.58 3.275 3.275 0 0 0 6.55 0 2.83 2.83 0 0 0-.05-.58l-.09-.44h6.1a.37.37 0 0 0 .37-.32v-.51a52.46 52.46 0 0 1 5.26-19.92l.18-.37a7.54 7.54 0 0 0 .92-3.38 5.57 5.57 0 0 0-5.39-5.38zm-32.22 26h-.71a.8.8 0 0 1-.8-.8v-2a.79.79 0 0 1 .8-.8h.77v.33l.28 2.91v.4zm3.93-14.65l-.05-.36.36-.05 2.4-.36h.26a1.7 1.7 0 0 1 .89.24 1.27 1.27 0 0 1 .58.89l.9 5.62a1.49 1.49 0 0 1-1.34 1.56c-.57.1-1.44.28-2.41.48l-.38.08-.06-.38zm3.27 22.16a2.55 2.55 0 0 1-2.55-2.55 2.19 2.19 0 0 1 .12-.75 2.47 2.47 0 0 1 2.09-1.77h.69a2.48 2.48 0 0 1 2.06 1.7 2.19 2.19 0 0 1 .15.81 2.55 2.55 0 0 1-2.56 2.57zm8.14-4.34h-5.4l-.11-.15a3.21 3.21 0 0 0-2.63-1.33 2.52 2.52 0 0 0-.44 0 3.17 3.17 0 0 0-1.27.46 3.27 3.27 0 0 0-1 .95l-.1.14h-.18l-2.27.15H4.1a.61.61 0 0 1-.48-.53l-.16-1.81-.13-1.46-.26-2.88-.07-.83a.81.81 0 0 1 .4-.79h.16l.34-.1c.72-.18 3.79-.87 3.92-.9l2.49-.5a2.21 2.21 0 0 0 1.92-2.4l-.9-5.63a2 2 0 0 0-.89-1.36 2.41 2.41 0 0 0-1.3-.38h-.36l-2.31.35-.46.07v-.46a3.49 3.49 0 0 1 3.46-3.2h2.57l.09.24a14.2 14.2 0 0 0 .64 1.43c.18.37.37.75.53 1.15a70.06 70.06 0 0 1 3.13 9.88 56.07 56.07 0 0 1 1.48 9.46v.39zM24 36.74a2.55 2.55 0 0 1-2.55-2.55 2 2 0 0 1 .15-.8 2.47 2.47 0 0 1 1.79-1.67 2.4 2.4 0 0 1 .61-.08 2 2 0 0 1 .64.09 2.43 2.43 0 0 1 1.78 1.7 1.88 1.88 0 0 1 .13.75A2.55 2.55 0 0 1 24 36.76zm9.4-8.92c-.23 1.57-.38 2.87-.46 4.09a.74.74 0 0 0 0 .15v.36h-6.15l-.11-.15a3.27 3.27 0 0 0-5.32 0l-.11.15h-2.52v-.34c-.1-1.36-.25-2.77-.48-4.29l-.06-.42H33.5zm5-16.09l-.25.54a56.8 56.8 0 0 0-3.72 10.15c-.21.84-.41 1.77-.62 2.82 0 .21-.07.43-.11.65s0 .32-.08.48l-.05.3h-4.78v-.4l.51-4.94a.36.36 0 0 0-.32-.4.37.37 0 0 0-.39.32l-.52 5.09v.33h-4.56l-.05-.3-1.27-7.4a.36.36 0 0 0-.36-.3.38.38 0 0 0-.36.43l1.22 7.18.07.43h-4.73l-.05-.3c-.25-1.46-.52-2.75-.81-4a72.49 72.49 0 0 0-3.24-10.13l-.06-.14c-.12-.27-.39-.83-.64-1.45l-.06-.13v-.11a11 11 0 0 1-.51-1.54 1.83 1.83 0 0 1-.07-.48 4.79 4.79 0 0 1 4.79-4.79 4.61 4.61 0 0 1 1.66.32l.32.12-.11.33a5.63 5.63 0 0 0-.31 1.77.365.365 0 0 0 .73 0 5.9 5.9 0 0 1 11.77 0 5.33 5.33 0 0 1-2.51 4.45.36.36 0 0 0 .2.67.35.35 0 0 0 .2-.06 6.05 6.05 0 0 0 2.84-5.06 5.73 5.73 0 0 0-.12-1.13L32 4.79l.23-.13a4.69 4.69 0 0 1 2.13-.59h.15a4.79 4.79 0 0 1 4.81 4.63 6.83 6.83 0 0 1-.91 3.04zM9.32 14.28h.13z"/><path d="M8.72 12.79a2.78 2.78 0 0 1 .45 0 2.79 2.79 0 0 0-.45 0zm1.28.11h-.15zm-.85 19.2z"/></svg>