<svg fill="#fff" data-name="Слой 1" xmlns="http://www.w3.org/2000/svg" viewBox="0 0 32.47 40"><title>продукты2</title><path d="M18.86 15.57a10.48 10.48 0 0 0-1 .25 10.46 10.46 0 0 1 1-.25z"/><path d="M.74 4.06a3.11 3.11 0 0 0-.42 0 .36.36 0 0 0-.25.14.38.38 0 0 0 .3.61 3.46 3.46 0 0 1 .38 0 3.32 3.32 0 0 1 2.63 1.25A11 11 0 0 1 4.56 8.3l.31.55h-.74a3.2 3.2 0 0 0-1.74.67 6.37 6.37 0 0 0-.16 9.26 5.21 5.21 0 0 0 .91.72c.38.25.52.37.64.73s.1.74-.42 1.29a10.93 10.93 0 0 0 5.75 18.4 3.81 3.81 0 0 0 .79.08 5.72 5.72 0 0 0 1.68-.28c.37-.12.74-.25 1.09-.38l.29-.11a15.82 15.82 0 0 1 2.39-.72 7.27 7.27 0 0 0 3.61-1.53 7 7 0 0 0 .63-.7l.18-.24.27.12a9.18 9.18 0 0 0 3.58 1 3.73 3.73 0 0 0 1.1-.16 10.92 10.92 0 0 0 7.13-6.92 10.61 10.61 0 0 0-1.19-9.55c-1.35-1.89-2.14-2.05-3.52-2.2-.44 0-.86-.1-1.39-.2l-.66-.13.46-.5a9 9 0 0 1 1.46-1.31 3.16 3.16 0 0 1 1.76-.52 3.39 3.39 0 0 1 1.44.31.37.37 0 0 0 .17 0 .38.38 0 0 0 .34-.2.38.38 0 0 0 0-.3.35.35 0 0 0-.18-.21 4.27 4.27 0 0 0-1.8-.4 3.87 3.87 0 0 0-2.15.65l-1 .71.36-1.09a2.7 2.7 0 0 0 .16-.49 3.35 3.35 0 0 0-.91-2.76 2.51 2.51 0 0 1-.46-2.46.42.42 0 0 0-.09-.47.4.4 0 0 0-.45 0c-.51.33-3 2.11-2.7 4.6a4.2 4.2 0 0 0 1.18 2.5l1.13 1.13-1.52-.51a.93.93 0 0 1-.23-.12 3.75 3.75 0 0 0-2.14-.76 7.16 7.16 0 0 0-2 .36 10 10 0 0 0-3.87 2.26l-.19.18s-1.11-.28-1.31-.9a1.19 1.19 0 0 1 .12-1v-.11a5.43 5.43 0 0 0 .31-1 6.23 6.23 0 0 0-.13-3.15 6.49 6.49 0 0 0-5.08-4.48l-1-.18.91-.52a4.36 4.36 0 0 0 1.75-1.89C10.64 2.89 8.37.17 8.35.14A.39.39 0 0 0 8.04 0h-.15a.38.38 0 0 0-.22.38 2.49 2.49 0 0 1-1.23 2.21 3.36 3.36 0 0 0-1.76 2.35 2 2 0 0 0 0 .47l.11 1.32L4 5.66l-.06-.09a4 4 0 0 0-3.2-1.51zm21.5 9.43a3.41 3.41 0 0 1 1-2.7l.5-.57.15.74a3.28 3.28 0 0 0 .71 1.45 2.71 2.71 0 0 1 .75 2.17 2.62 2.62 0 0 1-1 1.5l-.2.15-.22-.12a3.37 3.37 0 0 1-1.7-2.63zm-7 4.93a8.58 8.58 0 0 1 2.87-1.5 6.17 6.17 0 0 1 1.73-.33 3.07 3.07 0 0 1 1.78.66 11.23 11.23 0 0 0 5.4 1.85c1.31.14 1.82.27 3 1.89a9.88 9.88 0 0 1 1.11 8.87 10.22 10.22 0 0 1-6.65 6.44 3 3 0 0 1-.88.13 7.88 7.88 0 0 1-3-.8l-.41-.18.24-.37a10.94 10.94 0 0 0-5.12-16l-.6-.24zM7.45 8.7h.17a5.64 5.64 0 0 1 4.53 4 5.55 5.55 0 0 1 .11 2.77 3.89 3.89 0 0 1-.33 1 2 2 0 0 0-.15 1.49 1.7 1.7 0 0 0 1 1.13 4 4 0 0 0 .64.2 8.56 8.56 0 0 1 .9.25 10.19 10.19 0 0 1 6.65 6.76 10.51 10.51 0 0 1 .42 2.93 10 10 0 0 1-1.73 5.66 9 9 0 0 1-1 1.3c-.06.08-.16.18-.26.28a6.59 6.59 0 0 1-3.23 1.34 20.4 20.4 0 0 0-2.5.76 8.07 8.07 0 0 1-2.8.73 3 3 0 0 1-.63-.06 10.17 10.17 0 0 1-5.32-17.07 1.87 1.87 0 0 0 .6-2 1.84 1.84 0 0 0-.95-1.15l-.16-.11a4.64 4.64 0 0 1-.65-.53 5.63 5.63 0 0 1 .15-8.17 1.45 1.45 0 0 1 .56-.32 7.47 7.47 0 0 1 .82-.17 7.52 7.52 0 0 0 1.94-.57 3 3 0 0 1 1.26-.46zm-2-3.64a2.61 2.61 0 0 1 1.4-1.79 3.5 3.5 0 0 0 1.14-1.15l.39-.62.28.67a3.46 3.46 0 0 1 .08 2.86 3.39 3.39 0 0 1-2.43 1.94h-.24l-.14-.2a2.53 2.53 0 0 1-.43-1.72zm13.66 10.47h-.24z"/><path d="M6.54 25.29a1 1 0 0 0-.79-.3c-1.27 0-2.26 1.31-2.26 3s1 3 2.26 3a1 1 0 0 0 .78-.3c.35-.38.29-1 .23-1.7 0-.32-.06-.66-.06-1s0-.7.06-1c.06-.76.12-1.34-.22-1.7zM6 29.01a7.19 7.19 0 0 1 0 .81v.41l-.41-.06c-.77-.11-1.38-1.08-1.38-2.21a2.08 2.08 0 0 1 1.36-2.19l.45-.09v1.15c0 .22-.06.7-.06 1.08s.01.73.05 1.09z"/></svg>