<svg id="Слой_1" fill="#fff" xmlns="http://www.w3.org/2000/svg" viewBox="0 0 40 40"><style>.st0{fill:none}</style><title>здоровье2</title><path d="M16.8 26.2c.1.1.2.1.3.1 0 0-.2 0-.3-.1zm1.1-12.4zm.4-.2h-.1.1zm9.9 5.7zm1.5 0zm-3 0zm-11.9.1l.3.3-.3-.3zm3-5.5zm-3 5.5c-.1-.1-.3-.1-.4-.1.1 0 .3 0 .4.1zm9.5 1.3h8.5-8.5zm-7.5 5.5c-.1-.1-.2-.2-.2-.3 0 .1.1.2.2.3zm8.6-6.9zm-14.5-7.6zm-.1.2zm.5-.3h-.1.1zm-9.8 7.7zm-.8 0zm32.5 0zm1.8 0z"/><path d="M39.8 19.6h-2.1l.2-.5c.6-1.6.9-3.2.8-4.9 0-5-3.9-9-8.9-9.1-3.7 0-7 2.2-8.4 5.6l-.3.8-.3-.8c-1.9-4.6-7.1-6.8-11.7-5-3.4 1.4-5.7 4.7-5.6 8.4 0 1.7.2 3.3.8 4.9l.2.5H.2v.7h4.6l.1.2c1.5 2.7 3.5 5.1 5.9 7l.1.1v6.2c0 .2.1.3.3.4.2 0 .3-.1.4-.3 0-.1.3-1.4.9-4.2l.1-.6.5.4c2.5 1.9 5.1 3.7 7.8 5.3.1 0 .1.1.2 0h.2c8.5-5.2 13.8-9.9 16-14.2l.1-.2h2.4v-.7zm-28.9-2v9.1l-.6-.6c-1.8-1.5-3.3-3.4-4.5-5.4l-.3-.5.5-.1c1.7-.3 3.3-1.3 4.2-2.8l.7-1.1v1.4zm25.4 3.3c-2.3 3.9-7.2 8.1-15 13l-.2.1-.2-.1c-2.7-1.7-5.4-3.5-7.9-5.5l-.2-.1V28l.1-.4 1.2-5.5.2-1 .5.9.8 1.6.2.3.9 1.8c.1.1.2.2.3.2.2 0 .3-.1.3-.3 0-.1.2-2.3.4-4.4l.2-1.5.2-1.9.1-1 .6.8c1.2 1.7 3.1 2.7 5.2 2.7h12.5l-.2.6zm.7-1.4l-.1.2H24.1c-3 0-5.4-2.3-5.5-5.3 0-.2-.2-.3-.3-.3-.2 0-.3.1-.4.3 0 .2-.2 2.2-.7 6.9l-.1.6-.1 1.3-.1 1.2-.6-1.1c-.8-1.6-1.6-3.1-1.7-3.4 0-.2-.2-.3-.4-.3s-.3.1-.3.3c0 .2-.5 2.3-1.5 7.1l-.7 3.3V12.2c0-.2-.2-.3-.3-.4-.2 0-.3.1-.4.3-.1 2.6-1 6.9-5.4 7.4h-.3l-.1-.2c-.7-1.6-1-3.4-1-5.1 0-4.6 3.7-8.3 8.3-8.3 4.6 0 8.3 3.7 8.3 8.3 0 .2.2.4.4.4s.4-.2.4-.4c0-4.6 3.7-8.3 8.3-8.3 4.6 0 8.3 3.7 8.3 8.3-.1 1.8-.5 3.6-1.2 5.3zm-33.8-.2zm27.9 0zm-27.9 0z"/><path d="M10.8 11.9c0-.1.1-.1.1-.1l-.1.1zm.5-.3h.2-.2zm-.5.3c0 .1-.1.2-.1.3 0-.1.1-.2.1-.3zm6 14.3zm9.2-6.9zm-25.6 0zm16.9 7zm18.8-5.6zM1.5 19.3zm9.7-7.7l-.1.1c0-.1 0-.1.1-.1zm18.1 7.7zm1.8 0zm-12.8-5.7h.2-.2zm13.4 5.7zm1.8 0zm-19.2 0zm13.5 0zm-13 .1zm20.5-.1zm-17.2-5.6H18h.1zm-.3.2l.1-.1s-.1 0-.1.1zm-.1.1c0 .1-.1.2-.1.2 0-.1.1-.2.1-.2z"/><path class="st0" d="M0 0h40v40H0z"/></svg>