<svg fill="#fff" data-name="Слой 1" xmlns="http://www.w3.org/2000/svg" viewBox="0 0 40 39.88"><title>праздники2</title><path d="M39.7 7.96a.34.34 0 0 0-.26-.17h-1.95l.19-.51 1.73-4.69a.38.38 0 0 0-.06-.36.35.35 0 0 0-.27-.12l-4.43.72-.53.09.12-.53a.36.36 0 0 0-.07-.33 6.54 6.54 0 0 0-3.28-2 5.87 5.87 0 0 0-1.31-.15c-3.78 0-7.19 3.42-7.9 6.49a6.42 6.42 0 0 0-.14 1.15v.35h-2.78v-.35a6.42 6.42 0 0 0-.14-1.12c-.71-3.07-4.12-6.48-7.9-6.48A5.91 5.91 0 0 0 9.41.1a6.54 6.54 0 0 0-3.28 2 .37.37 0 0 0-.07.28v.44h-.44l-5.2-.56a.37.37 0 0 0-.35.53l2.34 4.75.25.5H2.1L.6 8.1a.36.36 0 0 0-.28.15.37.37 0 0 0-.05.32l2 6.35a.36.36 0 0 0 .2.22.36.36 0 0 0 .15 0 .37.37 0 0 0 .15 0l2.49-1.12.32-.14.16.31.33.67v24.95h29.16V13.46l.65.79.35.42a.36.36 0 0 0 .28.13.38.38 0 0 0 .33-.21l2.92-6.28a.36.36 0 0 0-.06-.35zm-17.45-.37a5.75 5.75 0 0 1 .13-.95c.64-2.8 3.75-5.92 7.19-5.92a5.18 5.18 0 0 1 1.15.13 5.66 5.66 0 0 1 2.59 1.46l.17.16-.08.22-3.29 9.66.95.57h-7V9.07a1.09 1.09 0 0 0-1.09-1.09h-.74zm.72 1.13h.36v4.21h-6.56V8.72h6.2zm-16-6.36A5.65 5.65 0 0 1 9.56.9a5.17 5.17 0 0 1 1.15-.13c3.43 0 6.54 3.12 7.19 5.92a5.69 5.69 0 0 1 .13.91v.39h-.87a1.09 1.09 0 0 0-1.09 1.09v3.85H9.53l.6-.59-3.3-9.62-.08-.22zm-2.08 11.1l-1.7.76-.38.17-.12-.39-1.43-4.66-.14-.45h.47l1.19-.05h.19l.1.21 1.94 3.94.17.34zm.88-.73l-4.45-9-.29-.59.66.07 4.5.48h.23l.08.22 2.78 8.17.07.21-.16.16-.39.39-1.63 1.65-.36.36-.23-.46zm11.76 1.3v25.13H6.77v-23.3l.11-.11 2-2 .11-.11h8.53zm4.38 0v25.12h-3.65v-25.5h3.65zm12.59 1.11v24H22.6v-25.5h9.79l1.9 1.11.18.11zm.47-2.42l-.35 1-.15.41-.38-.22-1.63-1-1.18-.7-.25-.15.1-.28 2.65-7.76.07-.21h.22l3.88-.64.62-.1-.22.59zm3.64-3.6l-1.93 4.15-.24.53-.37-.45-.24-.3-.13-.16.07-.2 1.41-3.83.08-.23h1.59zm1.13-1.6h-.1z"/><path d="M39.97 7.72a.77.77 0 0 0-.26-.24.77.77 0 0 1 .26.24zm-.6-.29a.57.57 0 0 1 .27.05.58.58 0 0 0-.2-.06z"/></svg>