<svg fill="#fff" data-name="Слой 1" xmlns="http://www.w3.org/2000/svg" viewBox="0 0 39.36 40"><title>хорека2</title><path d="M39 8.42h-.4c-1.58 0-3.22.08-4.35 1.09-.63.56-1.65 2.16-2.87 6.55l-.08.28h-1v-.35a8 8 0 0 0-6.83-7.74l-.46-.06.16-.43a.79.79 0 0 0 .05-.28.67.67 0 0 0-.68-.7.68.68 0 0 0-.68.71.72.72 0 0 0 .05.26l.17.44-.46.06a7.59 7.59 0 0 0-3.34 1.27l-.44.3-.12-.51a7.45 7.45 0 0 0-1.56-3.43l-.1-.11V.39a.36.36 0 0 0-.36-.36h-2.46a.36.36 0 0 0-.36.36v5.19l-.14.11a3.63 3.63 0 0 0-.8.94l-.11.17H9.9a.36.36 0 0 0-.36.35c-.06 1.67.14 3.89.91 4.68a1 1 0 0 0 .2.14l.18.11.06.24v4h-3.7v-3.29l.18-.11a1.29 1.29 0 0 0 .27-.18c.77-.8 1-3 .9-4.67a.36.36 0 0 0-.36-.35H5.5a.36.36 0 0 0-.36.35c-.06 1.67.14 3.89.91 4.68a1 1 0 0 0 .2.14l.18.11.06.24v3.09h-2.3a2.82 2.82 0 0 0-2.72 2.7L.03 36.48a.36.36 0 0 0 .36.39h2.8v.34a2.91 2.91 0 0 0 5.82 0v-.34h16.75v.34a2.91 2.91 0 0 0 5.82 0v-.34h2.82a.36.36 0 0 0 .36-.39l-1.1-17.45a3 3 0 0 0-1.42-2.37l-.24-.14.07-.27c.53-1.92 1.59-5.28 2.66-6.23s2.39-.91 3.79-.91h.47a.365.365 0 1 0 0-.73zm-16.44.47a7.14 7.14 0 0 1 7 7.05v.38h-14v-.38a7.14 7.14 0 0 1 7-7.05zm-9.61-1.77a.35.35 0 0 0-.07-.18l-.15-.24.2-.21a2.31 2.31 0 0 1 .51-.42.36.36 0 0 0 .18-.32v-5h1.73v5.18a.36.36 0 0 0 .13.28c.51.42 1.23 1.46 1.72 4v.19l-.13.14a8.16 8.16 0 0 0-2.29 5.47v.35H11.6v-4.24l.18-.11a1.29 1.29 0 0 0 .27-.18c.77-.8.97-3.05.9-4.71zm-2.68.75V7.5h2v.37c0 1.06-.19 3.17-.77 3.51l-.18.11-.19-.1c-.79-.42-.86-3.2-.86-3.52zm-4.46.94v-.37h2v.37c0 1.06-.19 3.17-.77 3.51l-.18.11-.19-.1c-.79-.42-.85-3.2-.86-3.51zm2.47 28.46a2.16 2.16 0 0 1-4.3 0l-.06-.41h4.42zm22.61 0a2.16 2.16 0 0 1-4.3 0l-.06-.41h4.42zm2-18.16l1.15 16.63v.39H.76v-.39l1.43-16.65a2.1 2.1 0 0 1 2-2h.71v.39l-1.14 16a.36.36 0 0 0 .34.39.37.37 0 0 0 .39-.34l1.15-16.09v-.34h3v6.13a.365.365 0 0 0 .73 0v-6.2H28.7v.35l.49 10.91a.36.36 0 0 0 .36.35.37.37 0 0 0 .35-.38l-.48-10.85v-.38h1.56a2.12 2.12 0 0 1 1.95 2.09z"/></svg>