<svg fill="#fff" data-name="Слой 1" xmlns="http://www.w3.org/2000/svg" viewBox="0 0 40.1 40"><title>ювелирка2</title><path d="M40.06 24.11l-.07-.09-9-8.29a.37.37 0 0 0-.25-.1H9.44a.37.37 0 0 0-.25.1l-9 8.29a.38.38 0 0 0-.07.1.41.41 0 0 0 0 .11v.18l.09.12 19.65 15.29h.37a.42.42 0 0 0 .19-.12l19.52-15.27.06-.08v-.06a.75.75 0 0 1 0-.08v-.09a.41.41 0 0 0 0-.1zm-18.28-7.79h8.36l-.17.49L27.83 23l-.2.58-.42-.45-5.71-6.19-.57-.62zm-1.67.17l.27.29 6 6.51.57.62H13.26l.57-.62 6-6.51zm-9.78-.17h8.95l-.57.62-5.74 6.23-.4.44-.21-.55-2.37-6.23-.19-.5zm-8.32 7l6.75-6.19.4-.37.19.51 2.36 6.19.19.5H1.31zm15.83 14.06L2.27 25.27l-.84-.66h10.76l.1.2 6.1 12.11.73 1.45zm2.31 1.4l-.33-.66-6.54-13-.27-.53h14.17l-.26.53-6.45 13zm17.68-13.51l-15.32 12-1.27 1 .72-1.45 5.95-12 .1-.2h10.66zm0-1.39h-9.55l.17-.49 2.17-6.3.18-.53.41.38 6.87 6.3.69.64zM10.8 4.91l.26.26-.26.26-2.05 2a.37.37 0 1 0 .52.52l2-2 .26-.26.26.26 2 2a.37.37 0 1 0 .52-.52l-2-2-.26-.26.26-.26 2-2a.37.37 0 1 0-.52-.52l-2 2-.26.26-.26-.26-2-2a.37.37 0 1 0-.52.52zm10.34 5.66h1.8v1.81a.37.37 0 1 0 .73 0v-1.8h1.8a.37.37 0 1 0 0-.73h-1.8v-1.8a.37.37 0 0 0-.73 0v1.8h-1.8a.37.37 0 0 0 0 .73zM27.78.05a.73.73 0 0 1 .24.16.73.73 0 0 0-.24-.16zM27.5 0a.74.74 0 0 1 .2 0 .74.74 0 0 0-.2 0zm2.08.05h-.09zM27.31.03h-.09zm.19.35a.37.37 0 0 0-.26.62l.61.62.26.26-.26.26-.62.61a.37.37 0 0 0 .52.52l.62-.61.26-.26.26.26.61.62a.37.37 0 1 0 .52-.52l-.61-.62-.26-.26.26-.26.62-.61a.37.37 0 0 0-.52-.52l-.62.61-.26.26-.26-.26-.61-.62a.36.36 0 0 0-.26-.1zm2.54-.32a.73.73 0 0 1 .24.16.73.73 0 0 0-.24-.16zm-.27-.05a.74.74 0 0 1 .19 0 .74.74 0 0 0-.19 0zm-2.54.04a.73.73 0 0 0-.24.16.73.73 0 0 1 .24-.16zm2.53-.04a.74.74 0 0 0-.19 0 .74.74 0 0 1 .19 0zM27.7.04h.08zm2.26.01h.08zm-.47.01a.74.74 0 0 0-.24.16.73.73 0 0 1 .24-.16zM27.5 0a.74.74 0 0 0-.19 0 .74.74 0 0 1 .19 0z"/></svg>