<svg id="Слой_1" fill="#fff" xmlns="http://www.w3.org/2000/svg" viewBox="0 0 40 40"><style>.st0{fill:none}</style><title>юр.услуги2</title><path d="M39.6 34.1h-1.4V31c0-.2-.2-.4-.4-.4h-3.3v-.4l-.4-12.9V17h.8c.2 0 .4-.2.4-.4v-1.8h1.2c.2 0 .4-.2.4-.4v-2.6h1c.2 0 .4-.1.4-.3 0-.2-.1-.4-.3-.4L20.3 5.2H20L2.4 11.1c-.2 0-.3.2-.3.4s.2.3.4.3h1v2.6c0 .2.2.4.4.4H5v1.8c0 .2.2.4.4.4h.8v.4l-.5 12.9v.4H2.4c-.2-.1-.4.1-.4.3v3.1H.3c-.2 0-.4.2-.4.4s.2.4.4.4h39.3c.2 0 .4-.2.4-.4s-.2-.4-.4-.4zm-5.1-18.9v1h-4.4v-1.4h4.4v.4zm-.7 15.4h-2.9v-.4l.5-12.9V17h2v.4l.4 12.9v.3zm-8.2-14.4H22v-1.4h4.4v1.4h-.8zm0 14.4h-2.9v-.4l.5-12.9V17h2v.4l.4 12.9v.3zm-8.1-14.4h-3.6v-1.4h4.4v1.4h-.8zm0 14.4h-2.9v-.4l.4-12.9V17h2v.4l.4 12.9.1.3zm-4-13.6h.8v.4l-.4 12.9v.4h-3.8v-.4l-.4-12.9V17h.8c.2 0 .4-.2.4-.4v-1.8h2.2v1.8c.1.2.2.3.4.4zm4.7 0h.4c.2 0 .4-.2.4-.4v-1.8h2.2v1.8c0 .2.2.4.4.4h.8v.4L22 30.3v.4h-3.7v-.4l-.4-12.9V17h.3zm8.1 0h.4c.2 0 .4-.2.4-.4v-1.8h2.2v1.8c0 .2.2.4.4.4h.8v.4l-.4 12.9v.4h-3.7v-.4L26 17.4V17h.3zM6.9 10.3L20 5.9h.2l13.1 4.4 2.2.7H4.7l2.2-.7zm-2.3 3.8h-.4v-2.3h31.9v2.3H4.6zm1.5 2.1h-.3v-1.4h4.4v1.4H6.1zm3.3 14.4H6.5v-.4l.4-12.9V17h2v.4l.4 12.9.1.3zm28 1.1V34H2.8v-2.7h34.6v.4zM.1 9.9h-.2c.2-.1.3-.1.5 0H.1z"/><path class="st0" d="M0 0h40v40H0z"/></svg>