<svg fill="#fff" data-name="Слой 1" xmlns="http://www.w3.org/2000/svg" viewBox="0 0 40 34.1"><title>новостройки2</title><path d="M15.51 4.72h1.28v.73h-1.28zm0 3.02h1.28v.73h-1.28zm0 3.22h1.28v.73h-1.28zm0 3.02h1.28v.73h-1.28zm6.2 10.06h1.28v.73h-1.28zm0 3.23h1.28V28h-1.28zm0 3.02h1.28v.73h-1.28z"/><path d="M39.07 26.61l-.16-.13v-.2a1.5 1.5 0 0 0 0-.22 2.7 2.7 0 0 0-2.65-2.69h-.28l-.11-.12a2.65 2.65 0 0 0-2-.87 2.2 2.2 0 0 0-.76.12l-.49.18v-3.2h-1.9v-4.25h-.73v4.25h-4.31V9.34h-1.61v-2.6h-.73v2.6H21.7v-2.6h-.73v2.6h-1.3V3.75a3.76 3.76 0 0 0-3.76-3.76h-3l-1.1 26.52v.6l-.52-.31a2.89 2.89 0 0 0-1.48-.4 2.11 2.11 0 0 0-.48 0l-.44.1v-.46a4.4 4.4 0 1 0-5.07 4.31h.31v3.12c0 .28.16.5.36.5s.36-.22.36-.5v-3.1l.29-.06a4.08 4.08 0 0 0 1.28-.4l.39-.2.12.43a3 3 0 0 0 2.22 2.09l.29.06v1.19c0 .24.14.49.36.49s.36-.22.36-.49v-1.06l.28-.07a2.87 2.87 0 0 0 .63-.23l.55-.28v.62l-.07 1.62h21.24v-2.35l.48.16a2.33 2.33 0 0 0 .59.11h.34v1.69a.36.36 0 0 0 .36.36.39.39 0 0 0 .36-.36v-1.77l.22-.1a2.61 2.61 0 0 0 .84-.6l.17-.18.23.09a2.88 2.88 0 0 0 1 .21 2.69 2.69 0 0 0 2.68-2.68 2.62 2.62 0 0 0-.99-2.05zM6.81 28.76v.13l-.11.08a3.75 3.75 0 0 1-2.27.79 3.69 3.69 0 1 1 3.67-3.69 3.36 3.36 0 0 1-.1.81V27l-.1.08a2.94 2.94 0 0 0-1.09 1.67zm4.7 2.06a2.26 2.26 0 0 1-.93.72 2.3 2.3 0 0 1-.85.16 2.41 2.41 0 0 1-.87-.17 2.27 2.27 0 0 1-.16-4.13 2.11 2.11 0 0 1 1-.26 2.28 2.28 0 0 1 1.9 1 2.38 2.38 0 0 1 .37 1.26 2.25 2.25 0 0 1-.46 1.42zm7.43-21.84v24.36H12.2v-.87l.06-1.46v-.17a1.56 1.56 0 0 0 .1-.25l.05-.14.05-.12a1 1 0 0 0 .05-.13 3 3 0 0 0 .12-.82 3.05 3.05 0 0 0-.1-.74v-.31a1.46 1.46 0 0 0-.06-.19v-.16l.06-1.47 1.06-25.48V.68h2.28a3 3 0 0 1 3 3zm6.08 1.45v22.88h-5.35V10.07h5.36zm6.93 20.86v2.07h-6.21V20.21h6.21v3.06l-.08.1a2.71 2.71 0 0 0-.6 1.46v.26l-.26.06a2.74 2.74 0 0 0 .36 5.39h.18l.09.16a2.33 2.33 0 0 0 .24.34l.09.1zm5.35-.7a1.92 1.92 0 0 1-1.16-.39.36.36 0 0 0-.21-.06h-.06a.45.45 0 0 0-.25.19 2.35 2.35 0 0 1-.14.2 1.84 1.84 0 0 1-1.54.75 1.19 1.19 0 0 1-.29 0 1.73 1.73 0 0 1-.78-.36 1.91 1.91 0 0 1-.72-.93.5.5 0 0 0-.43-.21.58.58 0 0 1-.16 0 2 2 0 0 1 .06-4 .56.56 0 0 0 .35-.13.42.42 0 0 0 .07-.3v-.1a1.16 1.16 0 0 1 0-.2 2 2 0 0 1 .87-1.62 1.9 1.9 0 0 1 1.08-.33 2 2 0 0 1 1.63.85.36.36 0 0 0 .31.17h.39a2 2 0 0 1 1.36.56 1.92 1.92 0 0 1 .6 1.39 1.89 1.89 0 0 1-.07.5.37.37 0 0 0 .16.41 1.92 1.92 0 0 1 1 1.67 2 2 0 0 1-2.06 1.94z"/></svg>