<svg fill="#fff" data-name="Слой 1" xmlns="http://www.w3.org/2000/svg" viewBox="0 0 40 40.02"><title>интернет пров2.</title><path d="M39.96 19.77A19.94 19.94 0 0 0 20.61.08h-.26a1.42 1.42 0 0 0-.69 0h-.22a20 20 0 1 0 20.52 20.27v-.15a1.36 1.36 0 0 0 0-.19.4.4 0 0 0 0-.08 1.38 1.38 0 0 1 0-.16zM27.29 2.22a19.42 19.42 0 0 1 11.66 14.55l.17 1-.76-.66a15.36 15.36 0 0 0-5.06-2.62l-.2-.07v-.2a20.56 20.56 0 0 0-6.23-11.4l-1.68-1.46zM14.41 23.43v.3l-.29.07a3 3 0 0 0-2.17 2l-.1.29-.3-.05a29.53 29.53 0 0 1-3.83-.93l-.21-.07v-.22a27.69 27.69 0 0 1-.4-4.75 28.79 28.79 0 0 1 .41-4.85V15l.21-.07a35.92 35.92 0 0 1 6.45-1.29l.45-.05v.45c-.18 1.83-.27 3.85-.27 6-.03 1.13 0 2.29.05 3.39zm-1.63 2.27A2.29 2.29 0 0 1 14 24.59a2.48 2.48 0 0 1 .89-.17 2.23 2.23 0 0 1 .83.16 2.29 2.29 0 0 1 1.45 1.58 2 2 0 0 1 .1.64 2.19 2.19 0 0 1-.26 1.06 2.14 2.14 0 0 1-.86.95 2.3 2.3 0 0 1-1.26.37 1.6 1.6 0 0 1-.43-.06 2.4 2.4 0 0 1-1.95-2.32 2.37 2.37 0 0 1 .28-1.1zm2.64-2h-.29v-.29c0-1.21-.07-2.32-.07-3.41 0-2.15.09-4.24.28-6.2v-.3h.3c1.35-.12 2.81-.18 4.34-.18h1.77l.05.28a3.14 3.14 0 0 0 2.72 2.52h.3v.31c.06 1.1.09 2.29.09 3.52 0 2.15-.09 4.24-.28 6.2v.3h-.3c-1.35.12-2.81.18-4.34.18h-2v-.31a3.09 3.09 0 0 0-2.56-2.57zm9.45-8.28a2 2 0 0 1-.57-.07 2.37 2.37 0 0 1-1.66-1.5 2.16 2.16 0 0 1-.15-.8 2.48 2.48 0 0 1 .17-.88 2.38 2.38 0 0 1 1.17-1.26 2.17 2.17 0 0 1 1-.25 2.1 2.1 0 0 1 .67.11 2.35 2.35 0 0 1 1.66 1.85 1.85 1.85 0 0 1 0 .44 2.14 2.14 0 0 1-.37 1.24 2.05 2.05 0 0 1-.89.84 2.11 2.11 0 0 1-1.03.28zm.52 10.56c.18-1.83.27-3.85.27-6 0-1.33 0-2.52-.1-3.63v-.29l.27-.08a3 3 0 0 0 1.93-1.81l.1-.28h.29a32.29 32.29 0 0 1 4.09 1l.22.06v.22a28.78 28.78 0 0 1 .41 4.85c0 .7 0 1.3-.06 1.84v.3h-.3a3.13 3.13 0 0 0-2.78 3.09v.43l-.29.06c-1.21.25-2.44.45-3.66.59l-.45.05zm5.11-1a2.34 2.34 0 0 1 1.75-2 2.28 2.28 0 0 1 1.7.19 2 2 0 0 1 .68.52 2.31 2.31 0 0 1 .62 1.58 2.41 2.41 0 0 1-2.14 2.38 1.14 1.14 0 0 1-.24 0 2.35 2.35 0 0 1-1.41-.46 2.58 2.58 0 0 1-.52-.52 2.35 2.35 0 0 1-.46-1.41.88.88 0 0 1 .03-.24zM22.62 1.13c4.38 1.36 8 6.11 9.53 12.41l.14.6-.59-.17a32.73 32.73 0 0 0-3.43-.76h-.29v-.29a3.14 3.14 0 0 0-2.82-3h-.28v-.27a22.68 22.68 0 0 0-2.62-7.93l-.54-.84zm-3-.35a1.89 1.89 0 0 1 .31 0h.37c1.38.57 2.87 4.14 3.71 8.88l.05.31-.3.1a3.12 3.12 0 0 0-2 2.22l-.07.3h-1.77c-1.35 0-2.74.05-4.12.16h-.44l.05-.44C16.36 5.23 18.23 1.38 19.6.82zm-1.28.06l-.54.84c-1.38 2.14-2.48 6.09-3 10.84v.29h-.29a39.9 39.9 0 0 0-6.14 1.14l-.59.16.14-.6c1.5-6.3 5.16-11.05 9.53-12.41zM1.01 16.82a19.4 19.4 0 0 1 11.72-14.6l2.05-.84-1.68 1.44a20.54 20.54 0 0 0-6.16 11.4v.2l-.2.07a15.22 15.22 0 0 0-5.1 2.66l-.77.67zm5.18-1.37l.58-.22-.1.61a27.11 27.11 0 0 0-.31 4.21 27.81 27.81 0 0 0 .3 4.12l.09.61-.58-.22C2.76 23.28.73 21.56.73 20s2.04-3.28 5.46-4.57zm6.54 22.37A19.39 19.39 0 0 1 1 23.13l-.17-1 .76.67a15.17 15.17 0 0 0 5.1 2.67l.2.07v.2a20.51 20.51 0 0 0 6.17 11.47l1.68 1.45zm4.68 1c-4.43-1.34-8.1-6.13-9.59-12.48l-.14-.6.59.17a31.61 31.61 0 0 0 3.23.72h.28v.28a3.1 3.1 0 0 0 3 2.87h.3l.05.29a22.9 22.9 0 0 0 2.67 8.15l.55.84zm2.59.36c-1.52 0-3.23-3.78-4.16-9.2v-.29l.27-.11a3.08 3.08 0 0 0 1.8-2l.08-.27h2.06c1.35 0 2.74-.05 4.12-.16h.44l-.05.44c-.86 6.69-2.8 11.67-4.56 11.67zm1.63-.08l.54-.83c1.39-2.12 2.51-6.1 3.08-10.92v-.29h.29c1.43-.16 2.81-.38 4.1-.65l.28-.06.12.26A3 3 0 0 0 31.39 28l.28.14-.1.3c-1.76 5.35-5.13 9.24-9 10.41zm17.33-16a19.4 19.4 0 0 1-11.68 14.72l-2.05.84 1.68-1.45a19.13 19.13 0 0 0 5.39-8.58l.1-.31.32.06h.15a3.12 3.12 0 0 0 3.11-3.12 2.58 2.58 0 0 0-.05-.55l-.06-.27.25-.13a11.29 11.29 0 0 0 2.25-1.47l.76-.66zm.28-3.05v.08c-.19 1.2-1.38 2.38-3.36 3.39l-.28.14-.18-.25a3.17 3.17 0 0 0-1.6-1.17l-.27-.09v-.28c0-.73.07-1.35.07-1.95a27.1 27.1 0 0 0-.31-4.21l-.1-.61.58.22c3.24 1.22 5.22 2.79 5.42 4.31v.29c0 .05.03.21.03.25z"/></svg>