<svg fill="#fff" xmlns="http://www.w3.org/2000/svg" viewBox="0 0 40 40"><title>стройка2</title><path d="M4.8 6.1h.3V1.8C5.1.8 6 0 7 0h26c1 0 1.8.8 1.8 1.8v2.8h4.8c.2 0 .4.2.4.4s-.2.4-.4.4h-4.8v2.2h1.5c.2 0 .4.2.4.4s-.2.4-.4.4h-1.5v2.8c0 1-.8 1.8-1.8 1.8H7c-1 0-1.8-.8-1.8-1.8V6.9h-.5C2 7.3.7 9 .7 12.1c0 1.4.5 2.7 1.4 3.7 1.1 1.1 2.6 1.6 4.1 1.6 2 0 4-.2 6-.4 1.5-.2 2.9-.3 4.4-.3 1.1-.1 2.1.2 3 .8.4.4.6.9.6 1.4v5.5h2.3c1.6 0 2.8 1.3 2.8 2.8 0 .2-.2.4-.4.4h-1.7v12.1c0 .2-.2.4-.4.4h-6c-.2 0-.4-.2-.4-.4V27.5h-1.7c-.2 0-.4-.2-.4-.4 0-1.6 1.3-2.8 2.8-2.8h2.2v-5.5c0-.3-.1-.7-.4-.9-.8-.5-1.6-.7-2.5-.6-1.3 0-2.8.2-4.4.3-2 .3-4.1.4-6.1.4-1.7 0-3.4-.6-4.6-1.8-.8-1-1.3-2.5-1.3-4.1 0-3.6 1.5-5.5 4.8-6zm1 .6V11c0 .6.5 1.1 1.1 1.1H33c.6 0 1.1-.5 1.1-1.1V8.2H28c-.2 0-.4-.2-.4-.4s.2-.4.4-.4h6.2V5.3h-9.8c-.2 0-.4-.2-.4-.4s.2-.4.4-.4h9.8V1.8c0-.6-.5-1.1-1.1-1.1H7c-.6 0-1.1.5-1.1 1.1l-.1 4.9zm11.5 21.2v11.4h5.3V27.5h-5.3v.4zm0-2.8c-.8 0-1.6.5-1.9 1.2l-.2.5h9.5l-.2-.5c-.3-.8-1.1-1.2-1.9-1.2h-5.3z"/></svg>