<svg fill="#fff" data-name="Слой 1" xmlns="http://www.w3.org/2000/svg" viewBox="0 0 37.52 40"><title>рестораны2</title><path d="M8.22 7.52C8.22 3.97 6.46 0 4.11 0S0 3.89 0 7.52c0 2.67 1.22 4.3 3.43 4.58h.32v27a.36.36 0 1 0 .72 0v-27h.32c2.21-.28 3.43-1.9 3.43-4.58zm-4.11 3.9c-2.25 0-3.38-1.31-3.38-3.9 0-3.14 1.48-6.8 3.38-6.8s3.38 3.72 3.38 6.8c.01 2.6-1.09 3.87-3.38 3.87zm14.77-5.34V.45a.36.36 0 0 0-.36-.36.38.38 0 0 0-.36.36v5.63c0 2.9-1.55 5.34-3.39 5.34S11.4 8.97 11.4 6.08V.45a.38.38 0 0 0-.36-.36.36.36 0 0 0-.36.36v5.63c0 2.94 1.49 5.51 3.46 6l.28.07v27a.36.36 0 0 0 .72 0v-27l.28-.07c1.98-.5 3.46-3.06 3.46-6z"/><path d="M13.55 5.71a.33.33 0 0 0 .36-.29V.39a.33.33 0 0 0-.36-.29.34.34 0 0 0-.36.29v5a.34.34 0 0 0 .36.32zm2.49 0a.33.33 0 0 0 .36-.32v-5a.37.37 0 0 0-.72 0v5a.33.33 0 0 0 .36.32zm21.47 1.96V0H24.27v8.3a24.58 24.58 0 0 0 .53 5.18c.95 4.29 3 7.24 5.45 7.7l.29.06v15.35c-.14.61-1.74 1.26-3.91 1.29a7.24 7.24 0 0 0-.36 1.15c-.08.31-.14.58-.16.68a.36.36 0 0 0 .36.33h8.89a.36.36 0 0 0 .36-.33c0-.1-.08-.37-.16-.68a7.19 7.19 0 0 0-.36-1.15c-2.18 0-3.8-.7-3.92-1.31V21.22l.29-.06c2.41-.46 4.5-3.41 5.45-7.7a24.57 24.57 0 0 0 .53-5.18c-.02-.19-.02-.4-.04-.61zm-5.73 30.26a8.25 8.25 0 0 0 2.85.61h.34v.71H26.8v-.7h.34a8.23 8.23 0 0 0 2.88-.62 5.15 5.15 0 0 0 .64-.4l.22-.18.22.18a5.16 5.16 0 0 0 .68.4zm5-36.85v7.21c0 .76 0 1.57-.12 2.39-.06.5-.12 1-.21 1.48a12 12 0 0 1-.3 1.48c-1 4.25-3 6.89-5.29 6.89s-4.29-2.65-5.29-6.91a12 12 0 0 1-.3-1.48c-.09-.46-.15-1-.2-1.46-.08-.83-.12-1.64-.12-2.4V.71H36.8z"/></svg>