<svg id="Слой_1" fill="#fff" xmlns="http://www.w3.org/2000/svg" viewBox="0 0 40 40"><style>.st0{fill:none}</style><title>спа2</title><path d="M39.1 15.6zM2.5 18.9h.7-.7zm4.1 12.7c.1-.1.1-.2.2-.3-.1.1-.2.1-.2.3zm4.5.8c-.5-.1-.9-.1-1.4-.3.4.1.9.2 1.4.3zm-4.2-1.1c.1 0 .2-.1.3-.1-.1 0-.2 0-.3.1zm30-14.9c.1-.1.2-.1.3-.1-.1 0-.2 0-.3.1zm-24.6 16h.1-.9.8z"/><path d="M.5 24.5c-.1 0-.2 0-.2.1-.1.1-.1.4 0 .5 2.2 2.2 5.1 3.4 8.2 3.4h.9l-.2.5c-.1.5-.2 1.1-.1 1.6 0 .5-.3.9-.7 1-.1 0-.2.1-.4.1h-.2c-.1 0-.3-.1-.4-.2h-.1c-.1 0-.3.1-.3.2-.1.2 0 .4.2.5 1.6.8 3.4 1.3 5.3 1.3 1.2 0 2.4-.2 3.6-.6 1.4-.5 2.7-1.2 3.8-2.1l.4-.3.2.4c.5 1.3 1.7 2.2 3 2.6.5.1.8.5.8 1 0 .2.2.3.3.4.2 0 .3-.2.3-.4 0-.5.3-.9.8-1h.1c1.8-.5 3.1-2 3.3-3.8v-.4l.4.1c3.8.8 7.7-.4 10.4-3.2.1-.1.1-.3 0-.5-.1-.1-.2-.1-.3-.1-.1 0-.2 0-.3.1 0 0-.3.3-.4.3-.2.1-.4.2-.6.1-.5 0-.9-.3-1-.8-.1-.5-.3-1.1-.7-1.5l-.2-.4.4-.2c.3-.2.6-.3.8-.6 1.1-.9 1.8-2.2 1.9-3.6.1-.3.1-.6.1-.9v-.5c-.1-.5-.2-1-.4-1.5l-.1-.1v-.1c-.1-.1-.2-.2-.3-.2-.1 0-.3.1-.3.2-.1.2-.2.3-.4.4l-.1.1c-.1 0-.2.1-.3.1h-.4c-.2 0-.3.1-.3.3-.2.8-.6 1.6-1.2 2.1l-.8.7.2-1c0-.2.1-.3.1-.5.1-.9 0-1.9-.3-2.8v-.1l.1-.1c.5-1.1.6-2.4.3-3.6l-.3-.9c-.1-.1-.1-.3-.2-.5-.2-.5-.6-.9-.9-1.3l-.1-.1-.1-.1c-.1-.1-.2-.2-.3-.2h-.2c-.1.1-.2.2-.2.3 0 .2 0 .3-.1.5v.1l-.2.1c-.1.1-.2.1-.3.2-.1 0-.2.1-.3.1-.1 0-.2 0-.3.1-.1.1-.1.2-.1.3.2 1.1-.1 2.1-.7 3l-.1.1c-.1.1-.1.2-.2.2l-.5.5-.1-.7c-.2-1.4-.9-2.7-2-3.7l-.2-.1c-.2-.1-.3-.3-.4-.5-.1-.3-.1-.6 0-.9.1 0 .3-.2.4-.3.2-.1.2-.3.1-.5-.1-.1-.2-.2-.3-.2-1.1 0-2.2.3-3.2.9l-.3.2-.2-.3c-.6-.7-1.4-1.3-2.3-1.5h-.1c-.4-.1-.7-.5-.7-1 0-.2-.1-.3-.3-.4-.2 0-.3.2-.3.4 0 .5-.3.9-.8 1-1.1.3-2 1-2.6 1.9v.2l-.2.4-.3-.3c-.1-.1-.3-.3-.5-.4-.3-.2-.6-.4-.9-.5-.5-.2-1-.6-1.2-1.1l-.1-.2c-.1-.1-.2-.2-.3-.2h-.1c-.4.1-.5.3-.4.5l.1.1v.1c.3.5.4 1.2.2 1.8 0 .2-1 3.2-1.1 3.3v.1l-.2.6-.5-.5c-.1-.1-.2-.3-.2-.5s0-.3.1-.5V11l.1-.1c.1-.2 0-.3-.2-.4h-.2c-.1 0-.1 0-.2.1-.6.4-1.1.9-1.5 1.5l-.1.2h-.1c-.3 0-.5 0-.8.1H8c-.4 0-.7-.2-.9-.6-.1-.1-.2-.2-.3-.2h-.2c-.2.1-.2.3-.2.5.2.4.1.9-.2 1.3-.5.6-1 1.3-1.2 2.1v.1l-.1.1c-.5.3-.9.7-1.3 1.1-.3.5-.8.8-1.4.9h-.1c-.1 0-.2.1-.2.1 0 .1-.1.2 0 .2 0 .2.2.3.3.3h.4c.2 0 .4-.1.5-.1.4 0 .8.1 1.2.3l2.3 1.4.7.5-.9.2c-1.8.3-3.2 1.7-3.6 3.5-.1.4-.5.8-1 .8-.2 0-.4 0-.5-.1l-.4-.3H.5zm19.3 5.2c-2 1.9-4.7 3-7.5 3-.9 0-1.8-.1-2.7-.4l-.6-.1.3-.4c.3-.3.4-.8.4-1.3-.1-.7 0-1.4.3-2l.1-.2h.2c1.2-.2 2.4-.6 3.5-1.2l.1-.1h.1c.3.1.7.1 1 .1h.6c.5 0 1-.2 1.5-.4.4-.1.7-.3 1-.6l.2-.1.2.1c.4.2.8.3 1.2.3h.3c.5 0 1-.2 1.5-.5l1-.7-.5 1.1c-.4.9-.8 1.7-1.4 2.4-.1.3-.5.7-.8 1zm.4-14.6c0 .2.1.3.1.4l.2.4-.3.1c-.7.2-1.4.6-2 1.1l-.4.4-.1-.5c-.1-.3-.1-.5-.3-.8v-.1c0-.1 0-.1-.1-.1v-.1c-.1-.3-.3-.6-.5-.8l-.2-.2.2-.2c.3-.4.5-.8.7-1.3v-.2c0-.1 0-.1.1-.2.2-.5.5-1 .8-1.4l.1-.1c.1-.2.3-.3.5-.5l.2-.1.1-.1h.4l.1.2c.1.2.2.4.4.5l.2.2-.1.2c-.5 1-.5 2.2-.1 3.2zm-2.8 4.3l.3-.6.1-.1c.8-1 1.8-1.7 3.1-2l.2-.1h.3c.1 0 .2 0 .3-.1l.6-.3.3-.3c.1-.1.1-.2.2-.3l.1-.1.2-.5.4.4c.7.7 1.2 1.7 1.3 2.8v.6c0 .5 0 1-.2 1.5-.1.3-.2.5-.3.8l-.3.3c-.7 1.5-2.1 4.2-3.9 4.4h-.3c-.2 0-.4 0-.6-.1l-.4-.1.2-.4c.3-.6.3-1.2.2-1.9-.1-.5-.5-.8-1-.8H18c-.2 0-.4 0-.5.1l-.4.1-.1-.3c0-.1-.1-.3-.1-.4v-1.4c0-.2.1-.4.1-.5.1-.3.2-.5.4-.7zm-.3 4l.6-.2h.9v.2c.1.4.1.8 0 1.1-.1.4-.3.8-.6 1.1-.1.1-.2.2-.4.3-.4.2-.8.4-1.2.5h-.1c-.3.1-.6.1-.9.1-.5 0-1-.1-1.5-.2-.3-.1-.7-.2-1-.3-.2-.1-.3-.1-.5-.2s-.3-.2-.5-.3c-1.2-.9-1.8-2.3-1.9-3.8v-.3c0-.2 0-.4.1-.6v-.5h.5c.2.1.4.2.6.2h.3l.1.2c.4 1.1 1.2 2 2.3 2.6.6.3 1.3.5 2 .5h1l.2-.4zm11.2 6c-.1 1.6-1.3 3-2.8 3.4h-.1c-.2.1-.5.2-.7.4l-.2.2-.2-.2c-.2-.2-.5-.3-.7-.4-1.3-.4-2.4-1.4-2.7-2.8v-.2l.1-.1c.9-1 1.6-2.1 2.1-3.3l.2-.5.4.4c1.3 1.3 2.8 2.2 4.5 2.8l.3.1-.2.2zm8.4-3.9c.1.4.4.8.7 1l.5.3-.5.3c-4.7 3-10.9 2-14.3-2.4l-.2-.2.2-.2c.5-.7 1-1.5 1.3-2.3l.4-.7.3.8c.2.5.4.9.7 1.4.4.6 1 1 1.6 1.1.1 0 .2.1.3.1.2 0 .3.1.5.1h.1c.5 0 .9-.1 1.3-.3.5-.2.9-.5 1.3-.8.4-.3.8-.6 1.2-1l.1-.1h.7c.4 0 .8.1 1.2.2.7.2 1.3.7 1.8 1.2.4.5.6 1 .8 1.5zm-1.6-5.3c1.1-.5 1.9-1.5 2.3-2.6l.1-.2h.3c.2 0 .4-.1.6-.2h.5l.1.3v.2c0 .2.1.4.1.6v.3c0 1.5-.7 2.9-1.9 3.8-.2.1-.3.2-.5.3l-.1.1c-.1.1-.2.1-.4.2h-.3l-.2-.1c-.6-.5-1.3-.9-2.1-1l-.6-.1.5-.5.2-.2.5-.5.1-.1h.1c.2-.1.4-.2.7-.3zm-3.9-6l.3-.3c.8-.9 1.2-2.1 1.1-3.2v-.3l.2-.1c.2-.1.4-.2.5-.4l.1-.1h.3l.1.2.1.2.3.6v.1c0 .1 0 .1.1.2.3.8.4 1.6.3 2.5l-.1.9-.5-.8c-.1-.1-.2-.2-.3-.4-.1-.1-.2-.2-.3-.2h-.1c-.2.1-.3.2-.2.4v.5c-.1.3-.3.6-.7.7-.1 0-.2.1-.3.1h-1.7l.8-.6zm-.9 1.4H32c.2 0 .4 0 .6-.1.3-.1.6-.3.8-.5l.2-.3.3.3v.1-.1c.1.1.1.2.1.3.2.4.3.9.3 1.3.1.4.1.8 0 1.2-.1.6-.3 1.2-.7 1.7-.2.3-.4.6-.7.9l-.3.4.1.2-.7.7c-.2.2-.4.4-.7.6-.3.3-.7.6-1.1.9-.4.3-.8.5-1.3.6-.2.2-.5.2-.7.2h-.4l-.3-.1c-.5-.1-.9-.5-1.3-.9-.6-.9-.9-1.9-.9-2.9 0-.4.1-.7.2-1l.3-.6.6-.9c.3-.4.7-.7 1.1-1 .2-.2.5-.3.7-.5h.1c.6-.3 1.3-.5 2-.5zm-5.3-7c.4-.3.9-.5 1.4-.7l.5-.1-.1.5c0 .3 0 .6.1.9.1.3.3.6.6.8l.2.2c1.2 1 1.9 2.5 1.8 4v.8h-.4c-.5.1-.9.3-1.3.6-.5.3-1 .6-1.5 1.1-.1.2-.3.3-.4.5l-.4.5-.1-.7c-.4-1.3-1.2-2.4-2.3-3.2l-.2-.1v-1.4c0-1 .4-1.9.9-2.7l.1-.1c.3-.3.7-.6 1.1-.9zm-7.9.8c.1-.3.1-.4.2-.6.5-.9 1.3-1.5 2.3-1.7.4-.1.6-.2.8-.4l.2-.2.2.2c.2.2.4.3.6.4.8.2 1.5.7 2 1.3l.2.2-.2.2c-.1.1-.2.3-.3.4-.7.9-1.1 2-1.2 3.2v2.9l-.1.1-.1.1c-.1.1-.2.1-.3.1l-.2.1-.1-.2c-.2-.2-.3-.5-.4-.8v-.1c-.4-1-.3-2.2.3-3.1.1-.2 0-.4-.2-.5-.1 0-.2-.1-.3-.2l-.1-.1h-.2v-.3c-.1-.2-.1-.4 0-.5.1-.1 0-.3-.1-.4-.1-.1-.2-.1-.3-.1h-.1l-.2.1c-.5.2-.9.5-1.3.9l-.3.3-.4.5-.2-.6c-.1-.3-.2-.6-.4-.9l.2-.3zm-4.3 3v-.1c.3-.8.5-1.6.7-2.3s.3-1 .4-1.1l.1-.4.1-.4.4.1c.1 0 .2.1.3.1.3.1.5.3.8.5.5.4.9.9 1.2 1.5.2.6.4 1.2.3 1.9-.1.6-.3 1.3-.7 1.8l-.2.3-.4-.3c-.5-.4-1.1-.8-1.7-1-.3-.1-.7-.2-1-.3l-.4-.1.1-.2zm-3.7 2.7c.1-1 .5-2 1.2-2.8l.3-.4.2.5c.1.3.3.5.6.7.2.2.5.3.8.3h.4c.5.1 1 .2 1.4.4.5.2.9.5 1.3.8.4.3.7.6.9 1 0 .1.1.1.1.2.3.4.5.9.6 1.4 0 .1.1.2.1.4v.1c0 .2.1.5.1.7v.2c-.6.9-.8 1.9-.8 3v.1l-.1.1c-.4.5-1 .8-1.7.8h-.7v-.1c-.9-.6-1.6-1.5-1.8-2.5 0-.2-.2-.3-.3-.3h-.4c-.1 0-.3 0-.4-.1h-.1l-.1-.1c-.1-.2-.3-.4-.4-.6l-.2-.4-.2-.4-.1-.1v-.1c-.4-.8-.7-1.6-.6-2.5-.1-.1-.1-.2-.1-.3zm-2.9-.4c.2-.2.3-.4.5-.6.2-.2.4-.4.5-.7l.1-.3h1l.6-.1-.2.5c-.1.4-.2.8-.3 1.3v.4l-.4-.1c-.3-.1-.6-.1-.8-.1h-.7l-.9.1.6-.4zm-1.5 3.6l-.2-.1h-.1l-.1-.1h-.1l-.5-.2.4-.4.1-.1c.4-.5.9-.9 1.5-1.1.8-.3 1.7-.4 2.5-.1l.2.1v.2c.1.7.4 1.4.7 2.1l.3.4h.1l.1.1.1.1-.1.2c-.2.4-.3.9-.3 1.3l-.1.5-.5-.2c-1.3-1-3.4-2.3-4-2.7zm-2.1 7.3c.4-.2.7-.6.8-1 .4-1.8 1.9-3 3.7-3 .7 0 1.4.2 2 .5l.1.1v.2c.2 1.4.9 2.6 1.9 3.5.3.3.7.5 1.1.7l.8.4-.8.3c-.8.3-1.7.5-2.6.6-2.5.3-4.9-.3-7-1.7l-.5-.3.5-.3zM13.3 5.9c.1 0 .2 0 .3.1-.1-.1-.2-.1-.3-.1zm14.7 1zM7.1 16.3zm26.3-8zm-26.8 8h-.2.2zm6.9 16h.5-.5zm-.6-26.4c.1 0 .2-.1.3-.1-.1.1-.2.1-.3.1zM20 9.2z"/><path d="M7.2 31.2c.1 0 .2 0 .3.1-.1-.1-.2-.1-.3-.1zm.9.2h-.2.2zm9.9-7.8h.2-.2zm14-9h-.3.3zm1.6-1.6zm-5.3 10.8h-.4.4zm11 1.5zM18 22.2c-.2 0-.4 0-.6.1.2-.1.4-.1.6-.1zm22 3.3l-.2-.2.2.2zm-.5-.2h.2-.2zm-24.7.9h-.2.2zm.5 0zM4 19.2c-.2-.2-.4-.2-.7-.3.3.1.5.1.7.3zm4.2-7zm0 0H8h.2zm-.3 1.4h-.5c.2.1.4.1.5 0zM32.4 16c.1 0 .3-.1.4-.1-.2 0-.3.1-.4.1zM7.1 11.6c.1.1.2.1.2.2l-.2-.2zM31.6 16h.4-.4zM7.7 12.2zm3.9 7.2c.1 0 .2 0 .3.1-.1-.1-.2-.1-.3-.1zM.3 24.3h.2-.2zm32-8.3h-.2.2zM6.4 11.6c.1 0 .2-.1.3-.1-.1.1-.2.1-.3.1zm4.6-1.2zm19.9 5.5h.5-.5zM6.8 11.5c.1 0 .2 0 .3.1-.1 0-.2-.1-.3-.1zM.2 24.3c-.1 0-.2.1-.2.2.1-.1.1-.2.2-.2zM13.6 6c.1.1.2.2.2.3 0-.1-.1-.2-.2-.3zM1.7 18.9zm5.5-4c.3 0 .6 0 .8.1-.2-.1-.5-.1-.8-.1zM1.8 19zM.7 24.3zm.7-5.7zm6.9 12.8H8h.3zM6.6 16.3H7h-.4zm32.7 9zm-9-9.3h.5-.5zm1.8 0zm-3.2 7.7c-.2 0-.3.1-.5.1.1 0 .3 0 .5-.1zm4.3-10.8h.2-.2zM6.4 16.4c-.2 0-.4.1-.6.2.2-.1.4-.2.6-.2zm25.9-1.8h-.2.2zM3.1 18.9h.2-.2zm4.1-4h-.7.7zm13.3-5.6c-.1-.1-.2-.1-.3-.2.1.1.2.2.3.2zm-13.3 7c.3 0 .6 0 .9.1-.3-.1-.6-.1-.9-.1zm32.6 9zM32.3 16zM19.7 9.2h.4-.4zm19.6 16.1c-.1 0-.2.1-.2.1s.1 0 .2-.1zM8.4 13.6H8c.1.1.3.1.4 0zM6.8 31.3zm.4-.1zm26.7-18c-.1-.1-.2-.2-.3-.2.1 0 .2.1.3.2zm5.3 2.4l.3.3-.3-.3zm-2 .7h.3-.3zm1.6-.7c.1 0 .2 0 .3.1-.1-.1-.2-.1-.3-.1zm-5.4-7.3c-.1 0-.2 0-.3.1.1-.1.3-.1.3-.1zM11.5 32.4H11h.5zM7.1 11.6zm.9.7c-.1 0-.2 0-.3-.1.1 0 .2.1.3.1zm5.5 20c-.3 0-.7.1-1 .1.3 0 .7 0 1-.1zm.5 0c.5-.1 1-.2 1.5-.4-.4.2-1 .3-1.5.4zm-.8-26.4zm.3.1zm-2.3 4.4c.1 0 .2 0 .3.1-.1-.1-.2-.1-.3-.1zm16.9-3.5c.1.1.2.1.3.3-.1-.2-.2-.3-.3-.3zm5.4 1.4c.1 0 .2.1.3.2 0-.1-.2-.1-.3-.2zM6.8 11.5zm21-4.7c.1 0 .2 0 .3.1-.2-.1-.2-.1-.3-.1zM1.7 18.9l.1.1-.1-.1zm16.1 4.7h.2-.2zm-16.4-5c0-.1-.1-.2-.1-.2 0 .1 0 .2.1.2zm13.2 7.6c-.2 0-.5-.1-.7-.1.2 0 .4 0 .7.1zM.7 24.3c.1 0 .2.1.2.1s-.1-.1-.2-.1zm-.4 0zm.2-.1h.2-.2zm10.9-4.8h.3-.3zm-9.8-.5l-.1-.1s.1 0 .1.1zM18 22.2zM2.1 19h-.2.2zm8.9-8.6c-.1 0-.2.1-.3.1.1 0 .2 0 .3-.1zm-3.4 1.7c-.1-.1-.2-.1-.2-.3 0 .2.1.3.2.3zm7.6 14.1h-.4.4zm.9-.1c-.3 0-.5.1-.8.1.3 0 .6 0 .8-.1z"/><path class="st0" d="M0 0h40v40H0z"/></svg>