<svg id="Слой_1" fill="#fff" xmlns="http://www.w3.org/2000/svg" viewBox="0 0 40 40"><style>.st0{fill:none}</style><title>спорт2</title><path d="M39.6 19.6h-2.1v-1.9c0-1.3-1.1-2.4-2.4-2.4-.4 0-.8.1-1.1.3l-.5.3v-1.4c0-1.3-1.1-2.4-2.4-2.4s-2.4 1.1-2.4 2.4v5.1H11.4v-5.1c0-1.3-1.1-2.4-2.4-2.4s-2.4 1.1-2.4 2.4v1.4l-.5-.3c-.3-.2-.7-.3-1.1-.3-1.3 0-2.4 1.1-2.4 2.4v1.9H.4c-.2 0-.4.2-.4.4s.2.4.4.4h2.2v1.9c0 1.3 1.1 2.4 2.4 2.4.4 0 .8-.1 1.1-.3l.5-.3v1.4c0 1.3 1.1 2.4 2.4 2.4s2.4-1.1 2.4-2.4v-5.1h17.3v5.1c0 1.3 1.1 2.4 2.4 2.4s2.4-1.1 2.4-2.4v-1.4l.5.3c.3.2.7.3 1.1.3 1.3 0 2.4-1.1 2.4-2.4v-1.9h2.1c.2 0 .4-.2.4-.4s-.2-.4-.4-.4zm-33-.3v3c.1.9-.6 1.7-1.5 1.8-.9.1-1.7-.6-1.8-1.5v-4.9c-.1-.9.6-1.7 1.5-1.7.9-.1 1.7.6 1.8 1.5v1.8zm4 0v6.2c-.1.9-.9 1.6-1.8 1.5-.8 0-1.4-.7-1.5-1.5v-11c-.1-.9.6-1.7 1.5-1.8.9-.1 1.7.6 1.8 1.5v5.1zm22.1 0v6.2c.1.9-.6 1.7-1.5 1.8-.9.1-1.7-.6-1.8-1.5V14.5c-.1-.9.6-1.7 1.5-1.8.9-.1 1.7.6 1.8 1.5v5.1zm4 0v3c.1.9-.6 1.7-1.5 1.8-.9.1-1.7-.6-1.8-1.5v-4.9c.1-.9.9-1.6 1.8-1.5.8.1 1.5.7 1.5 1.5v1.6z"/><path class="st0" d="M0 0h40v40H0z"/></svg>