<svg fill="#fff" data-name="Слой 1" xmlns="http://www.w3.org/2000/svg" viewBox="0 0 40 39.95"><title>туризм2</title><path d="M16.09 17.2a.36.36 0 0 0-.36-.36h-4.9a.36.36 0 0 0-.36.3l-1.49 8a.37.37 0 0 0 .14.36l2.1 1.57a.37.37 0 0 0 .22.07h2.88v.33l.52 5.17a.36.36 0 0 0 .31.32l5.3.81a.38.38 0 0 0 .23-.06l3.67-2.44a.37.37 0 0 0 .14-.44l-3.23-8.3a.36.36 0 0 0-.33-.23l-4.46.73-.42.07v-5.94zm-4.41 9.25h-.12l-.1-.07-1.54-1.16-.18-.14v-.22l1.29-7 .06-.3h4.23v8.89h-3.68zm4.71-2.62l4.05-.67h.29l.11.28 2.81 7.21.11.27-.24.16-2.94 2-.12.08h-.14l-4.47-.68h-.28v-.28l-.45-4.46v-.4h.67a.36.36 0 0 0 .36-.36v-2.93z"/><path d="M37.45 13.23H27.14V9.55h.36a1.82 1.82 0 0 0 1.83-1.82 1.84 1.84 0 0 0-1.84-1.84H17.28a1.83 1.83 0 0 0 0 3.66h.36v1.76h-.39C12.09 10.94 9.59 5.4 9.44.41a.36.36 0 0 0-.36-.35H4.54a.36.36 0 0 0-.36.37l.26 10.41a.37.37 0 0 0 .37.36.36.36 0 0 0 .15 0l5.91-2.59.27-.12.17.24a7.86 7.86 0 0 0 6 3.37h.34v1.2H2.55A2.55 2.55 0 0 0 0 15.85v21.62a2.55 2.55 0 0 0 2.55 2.55h34.9A2.55 2.55 0 0 0 40 37.47V15.78a2.55 2.55 0 0 0-2.55-2.55zM10.36 7.95l-4.71 2.07-.5.22V9.7l-.21-8.58V.75h3.81v.34a15.41 15.41 0 0 0 1.78 6.36l.19.35zm6.92.87a1.1 1.1 0 0 1 0-2.2h10.2a1.11 1.11 0 0 1 1.09 1.11 1.09 1.09 0 0 1-1.08 1.09H17.28zm9.11.73v3.57h-8V9.49h8zM.73 20.12v-4.37a1.82 1.82 0 0 1 1.82-1.82h4.74v4.74a1.82 1.82 0 0 1-1.82 1.82H.73zm6.56 18.71v.36H2.55a1.82 1.82 0 0 1-1.82-1.82v-4.74h4.74a1.82 1.82 0 0 1 1.82 1.82zm32-5.83v4.37a1.82 1.82 0 0 1-1.82 1.82h-4.74v-4.74a1.82 1.82 0 0 1 1.82-1.82h4.74zm0-11.42v10.33h-4.75a2.55 2.55 0 0 0-2.55 2.55v4.74h-24v-4.74a2.55 2.55 0 0 0-2.55-2.55H.7v-10.7h4.74a2.55 2.55 0 0 0 2.55-2.55v-4.74h24v4.74a2.55 2.55 0 0 0 2.55 2.55h4.74zm0-1.46v.36h-4.75a1.82 1.82 0 0 1-1.82-1.82v-4.74h4.74a1.82 1.82 0 0 1 1.82 1.82z"/></svg>