<?xml version="1.0" encoding="utf-8"?>
<!-- Generator: Adobe Illustrator 21.1.0, SVG Export Plug-In . SVG Version: 6.00 Build 0)  -->
<svg version="1.1" id="Layer_1" xmlns="http://www.w3.org/2000/svg" xmlns:xlink="http://www.w3.org/1999/xlink" x="0px" y="0px"
	 viewBox="0 0 512 512" style="enable-background:new 0 0 512 512;" xml:space="preserve">
<style type="text/css">
	.st0{fill:#1ED470;}
</style>
<g>
	<g>
		<path class="st0" d="M476.1,215.9h-78.5c-11,0-19.9,8.9-19.9,19.9v13.3c-0.3,0-0.7-0.1-1-0.1h-27.5V118.6c0-11-8.9-19.9-19.9-19.9
			h-14.2V86c0-11-8.9-19.9-19.9-19.9h-10.9c-4.1,0-7.5,3.4-7.5,7.5c0,4.1,3.4,7.5,7.5,7.5h10.9c2.7,0,4.9,2.2,4.9,4.9v40.5
			c0,2.7-2.2,4.9-4.9,4.9h-78.5c-2.7,0-4.9-2.2-4.9-4.9V86c0-2.7,2.2-4.9,4.9-4.9h41.6c4.1,0,7.5-3.4,7.5-7.5c0-4.1-3.4-7.5-7.5-7.5
			h-41.6c-11,0-19.9,8.9-19.9,19.9v12.7h-25.1V52.5c0-11-8.9-19.9-19.9-19.9h-17.6V19.9c0-11-8.9-19.9-19.9-19.9H35.9
			C24.9,0,16,8.9,16,19.9v40.5c0,11,8.9,19.9,19.9,19.9h78.5c11,0,19.9-8.9,19.9-19.9V47.6h17.6c2.7,0,4.9,2.2,4.9,4.9v107.4
			c0,2.7-2.2,4.9-4.9,4.9h-17.6v-12.7c0-11-8.9-19.9-19.9-19.9H35.9c-11,0-19.9,8.9-19.9,19.9v40.5c0,11,8.9,19.9,19.9,19.9h78.5
			c11,0,19.9-8.9,19.9-19.9v-12.7h17.6c11,0,19.9-8.9,19.9-19.9v-46.2h25.1v12.7c0,11,8.9,19.9,19.9,19.9h78.5
			c11,0,19.9-8.9,19.9-19.9v-12.7h14.2c2.7,0,4.9,2.2,4.9,4.9v275.8c0,2.7-2.2,4.9-4.9,4.9h-14.2v-13.8c0-11-8.9-19.9-19.9-19.9
			h-78.5c-11,0-19.9,8.9-19.9,19.9v12.7h-25.1V352c0-11-8.9-19.9-19.9-19.9h-17.6v-12.7c0-11-8.9-19.9-19.9-19.9H35.9
			c-11,0-19.9,8.9-19.9,19.9v40.5c0,11,8.9,19.9,19.9,19.9h78.5c11,0,19.9-8.9,19.9-19.9v-12.7h17.6c2.7,0,4.9,2.2,4.9,4.9v107.4
			c0,2.7-2.2,4.9-4.9,4.9h-17.6v-12.7c0-11-8.9-19.9-19.9-19.9H35.9c-11,0-19.9,8.9-19.9,19.9v40.5c0,11,8.9,19.9,19.9,19.9h78.5
			c11,0,19.9-8.9,19.9-19.9v-12.7h17.6c11,0,19.9-8.9,19.9-19.9v-46.2h25.1V426c0,11,8.9,19.9,19.9,19.9h78.5
			c11,0,19.9-8.9,19.9-19.9v-11.7h14.2c11,0,19.9-8.9,19.9-19.9V264h27.5c0.4,0,0.7,0,1-0.1v12.3c0,11,8.9,19.9,19.9,19.9h78.5
			c11,0,19.9-8.9,19.9-19.9v-40.5C496,224.8,487.1,215.9,476.1,215.9z M119.3,60.4c0,2.7-2.2,4.9-4.9,4.9H35.9
			c-2.7,0-4.9-2.2-4.9-4.9V19.9c0-2.7,2.2-4.9,4.9-4.9h78.5c2.7,0,4.9,2.2,4.9,4.9V60.4z M119.3,192.6c0,2.7-2.2,4.9-4.9,4.9H35.9
			c-2.7,0-4.9-2.2-4.9-4.9v-40.5c0-2.7,2.2-4.9,4.9-4.9h78.5c2.7,0,4.9,2.2,4.9,4.9V192.6z M119.3,359.9c0,2.7-2.2,4.9-4.9,4.9H35.9
			c-2.7,0-4.9-2.2-4.9-4.9v-40.5c0-2.7,2.2-4.9,4.9-4.9h78.5c2.7,0,4.9,2.2,4.9,4.9V359.9z M119.3,492.1c0,2.7-2.2,4.9-4.9,4.9H35.9
			c-2.7,0-4.9-2.2-4.9-4.9v-40.5c0-2.7,2.2-4.9,4.9-4.9h78.5c2.7,0,4.9,2.2,4.9,4.9V492.1z M300.1,426c0,2.7-2.2,4.9-4.9,4.9h-78.5
			c-2.7,0-4.9-2.2-4.9-4.9v-40.5c0-2.7,2.2-4.9,4.9-4.9h78.5c2.7,0,4.9,2.2,4.9,4.9V426z M481,276.2c0,2.7-2.2,4.9-4.9,4.9h-78.5
			c-2.7,0-4.9-2.2-4.9-4.9v-40.5c0-2.7,2.2-4.9,4.9-4.9h78.5c2.7,0,4.9,2.2,4.9,4.9V276.2z"/>
	</g>
</g>
</svg>
