<?xml version="1.0" encoding="utf-8"?>
<!-- Generator: Adobe Illustrator 21.1.0, SVG Export Plug-In . SVG Version: 6.00 Build 0)  -->
<svg version="1.1" id="Capa_1" xmlns="http://www.w3.org/2000/svg" xmlns:xlink="http://www.w3.org/1999/xlink" x="0px" y="0px"
	 viewBox="0 0 512 512" style="enable-background:new 0 0 512 512;" xml:space="preserve">
<style type="text/css">
	.st0{fill:#1ED470;}
</style>
<g>
	<g>
		<path class="st0" d="M508.5,234.5c0-4.1-3.4-7.5-7.5-7.5H318.5v-62.5c0-4.1-3.4-7.5-7.5-7.5h-50h-12.5v-27.5
			c0-8.4-1.6-16.6-4.9-24.3c-3.1-7.4-7.7-14.1-13.4-19.9c-5.7-5.7-12.4-10.2-19.9-13.4c-7.7-3.3-15.9-4.9-24.3-4.9
			c-8.4,0-16.6,1.6-24.3,4.9c-0.2,0.1-0.4,0.2-0.6,0.3c-0.2-0.1-0.4-0.2-0.6-0.3c-7.7-3.3-15.9-4.9-24.3-4.9
			c-8.4,0-16.6,1.6-24.3,4.9c-7.4,3.1-14.1,7.6-19.9,13.4c-5.7,5.7-10.2,12.4-13.4,19.9c-3.3,7.7-4.9,15.9-4.9,24.3V157H11
			c-4.1,0-7.5,3.4-7.5,7.5v0v0v340c0,4.1,3.4,7.5,7.5,7.5h249.8c0.1,0,0.1,0,0.2,0h50h0h0h190c4.1,0,7.5-3.4,7.5-7.5
			c0-0.1,0-0.1,0-0.2c0-0.1,0-0.1,0-0.2L508.5,234.5L508.5,234.5z M186,82c12.7,0,24.6,4.9,33.6,13.9c9,9,13.9,20.9,13.9,33.6V157
			h-34.8v-27.5c0-8.4-1.7-16.6-4.9-24.3c-3.1-7.4-7.6-14.1-13.4-19.9c-0.9-0.9-1.8-1.7-2.7-2.6C180.4,82.3,183.2,82,186,82z
			 M161.1,89.1c3.1,1.9,6,4.2,8.7,6.9c9,9,13.9,20.9,13.9,33.6V157h-45.2v-27.5c0-12.7,4.9-24.6,13.9-33.6
			C155.1,93.3,158,91,161.1,89.1z M102.6,95.9c9-9,20.9-13.9,33.6-13.9c2.8,0,5.6,0.3,8.4,0.8c-0.9,0.8-1.8,1.7-2.7,2.6
			c-5.7,5.7-10.3,12.4-13.4,19.9c-3.3,7.7-4.9,15.9-4.9,24.3V157H88.7v-27.5h0C88.7,116.8,93.6,104.9,102.6,95.9z M253.5,497h-235
			V172h55.2v52.5c0,4.1,3.4,7.5,7.5,7.5c4.1,0,7.5-3.4,7.5-7.5V172h42.3c0,0,0.1,0,0.1,0c0,0,0.1,0,0.1,0h52.6v52.5
			c0,4.1,3.4,7.5,7.5,7.5c4.1,0,7.5-3.4,7.5-7.5V172h42.3c0,0,0.1,0,0.1,0s0.1,0,0.1,0h12.4V497z M303.5,497h-35V172h35V497z
			 M443.5,497h-125V321.5c5.1-0.7,10.1-2,14.9-4c6.9-2.9,13-7,18.3-12.3c5.3-5.3,9.4-11.4,12.3-18.3c3-7.1,4.5-14.6,4.5-22.4
			c0-4.1-3.4-7.5-7.5-7.5c-4.1,0-7.5,3.4-7.5,7.5c0,11.3-4.4,22-12.4,30c-6.2,6.2-14.1,10.3-22.6,11.8V242h125L443.5,497L443.5,497z
			 M493.5,497h-35V242h35V497z"/>
	</g>
</g>
<g>
	<g>
		<path class="st0" d="M396,30c-12.4,0-22.5,10.1-22.5,22.5S383.6,75,396,75s22.5-10.1,22.5-22.5S408.4,30,396,30z M396,60
			c-4.1,0-7.5-3.4-7.5-7.5s3.4-7.5,7.5-7.5s7.5,3.4,7.5,7.5S400.1,60,396,60z"/>
	</g>
</g>
<g>
	<g>
		<path class="st0" d="M456,90c-12.4,0-22.5,10.1-22.5,22.5S443.6,135,456,135s22.5-10.1,22.5-22.5S468.4,90,456,90z M456,120
			c-4.1,0-7.5-3.4-7.5-7.5s3.4-7.5,7.5-7.5s7.5,3.4,7.5,7.5S460.1,120,456,120z"/>
	</g>
</g>
<g>
	<g>
		<path class="st0" d="M476.3,32.2c-2.9-2.9-7.7-2.9-10.6,0l-90,90c-2.9,2.9-2.9,7.7,0,10.6c1.5,1.5,3.4,2.2,5.3,2.2
			s3.8-0.7,5.3-2.2l90-90C479.2,39.9,479.2,35.1,476.3,32.2z"/>
	</g>
</g>
<g>
	<g>
		<path class="st0" d="M501,0H351c-4.1,0-7.5,3.4-7.5,7.5c0,0.4,0,0.8,0.1,1.3c-0.1,0.4-0.1,0.8-0.1,1.3v47.5c0,4.1,3.4,7.5,7.5,7.5
			c4.1,0,7.5-3.4,7.5-7.5V15h135v128L426,179l-67.5-36V87.5c0-4.1-3.4-7.5-7.5-7.5c-4.1,0-7.5,3.4-7.5,7.5v59.9c0,0.3,0,0.5,0,0.8
			c0.1,1,0.4,1.9,0.8,2.7c0,0,0,0.1,0.1,0.1c0,0,0,0.1,0.1,0.1c0.7,1.2,1.7,2.3,3,3l75,40c1.1,0.6,2.3,0.9,3.5,0.9s2.4-0.3,3.5-0.9
			l75-40c1.1-0.6,2-1.4,2.6-2.4c0,0,0,0,0-0.1c0.1-0.1,0.1-0.2,0.2-0.4c0.1-0.1,0.1-0.2,0.2-0.3c0-0.1,0.1-0.1,0.1-0.2
			c0.5-1,0.8-2.1,0.8-3.3c0,0,0,0,0-0.1c0,0,0,0,0,0V7.5C508.5,3.4,505.1,0,501,0z"/>
	</g>
</g>
</svg>
