<?xml version="1.0" encoding="utf-8"?>
<!-- Generator: Adobe Illustrator 21.1.0, SVG Export Plug-In . SVG Version: 6.00 Build 0)  -->
<svg version="1.1" id="Capa_1" xmlns="http://www.w3.org/2000/svg" xmlns:xlink="http://www.w3.org/1999/xlink" x="0px" y="0px"
	 viewBox="0 0 480 480" style="enable-background:new 0 0 480 480;" xml:space="preserve">
<style type="text/css">
	.st0{fill:#1ED470;}
</style>
<g>
	<g>
		<path class="st0" d="M431.2,216.2c-3.2-15.7-15.5-28-31.2-31.2V96.1c0-13.3-10.7-24-24-24s-24,10.7-24,24V99l-169.7,77.2H56
			c-30.9,0.2-55.8,25.5-55.6,56.4c0.2,27.5,20.4,50.9,47.6,55v120.6c0,4.4,3.6,8,8,8h64c4.4,0,8-3.6,8-8V344
			c22.4-1.2,40-19.8,40-42.2v-13.6h14.6L352,349.7v2.4c0,13.3,10.7,24,24,24s24-10.7,24-24v-88.8
			C421.6,258.9,435.6,237.8,431.2,216.2z M112,400.1H64v-16h16v-16H64v-16h16v-16H64v-16h16v-16H64v-16h48V400.1z M152,301.7
			c0,13.6-10.4,25-24,26.1v-39.7h24V301.7z M176,272.1H56c-22.1,0-40-17.9-40-40c0-10.6,4.2-20.8,11.7-28.3
			c7.5-7.5,17.7-11.7,28.3-11.7h120V272.1z M352,332.7l-160-58.2v-85.2l160-72.7V332.7z M384,352.1c0,4.4-3.6,8-8,8s-8-3.6-8-8v-8
			v-248c0-4.4,3.6-8,8-8s8,3.6,8,8V352.1z M414.7,232c-2.4,6.9-7.8,12.3-14.7,14.7v-45.1C412.4,205.9,419,219.5,414.7,232z"/>
	</g>
</g>
<g>
	<g>
		<path class="st0" d="M88,208.1c-13.3,0-24,10.7-24,24s10.7,24,24,24s24-10.7,24-24S101.3,208.1,88,208.1z M88,240.1
			c-4.4,0-8-3.6-8-8s3.6-8,8-8s8,3.6,8,8S92.4,240.1,88,240.1z"/>
	</g>
</g>
<g>
	<g>
		<circle class="st0" cx="224" cy="376.1" r="16"/>
	</g>
</g>
<g>
	<g>
		<path class="st0" d="M478.7,51.7C478.7,51.7,478.7,51.7,478.7,51.7c-2.5-3.7-7.4-4.7-11.1-2.2c0,0,0,0,0,0l-48,32
			c-3.7,2.5-4.7,7.4-2.2,11.1s7.4,4.7,11.1,2.2l48-32C480.1,60.3,481.1,55.4,478.7,51.7z"/>
	</g>
</g>
<g>
	<g>
		<path class="st0" d="M479.5,158.3c-1-4.1-4.9-6.7-9.1-6.1h-0.1l-40,8c-4.3,0.9-7.1,5.1-6.2,9.4c0.8,3.7,4,6.4,7.8,6.4
			c0.5,0,1.1-0.1,1.6-0.2l40-8C477.9,166.9,480.6,162.6,479.5,158.3z"/>
	</g>
</g>
<g>
	<g>
		<path class="st0" d="M473.6,280.3l-40-8c-4.3-1-8.6,1.6-9.6,5.9c-1,4.3,1.6,8.6,5.9,9.6c0.2,0,0.4,0.1,0.5,0.1l40,8
			c0.5,0.1,1,0.2,1.5,0.2c4.4,0,8-3.6,8-8C480,284.3,477.3,281,473.6,280.3z"/>
	</g>
</g>
<g>
	<g>
		<path class="st0" d="M475.6,369l-48-24c-4-2-8.8-0.4-10.7,3.6s-0.4,8.8,3.6,10.7l48,24c4,2,8.8,0.4,10.7-3.6
			C481.1,375.7,479.5,370.9,475.6,369z"/>
	</g>
</g>
<g>
	<g>
		<path class="st0" d="M85.5,74.5c-3.1-3-8-3-11.1,0l-72,72c-3.1,3.1-3.1,8.2,0,11.3c1.5,1.5,3.5,2.3,5.7,2.3c2.1,0,4.2-0.8,5.7-2.3
			l72-72C88.7,82.6,88.6,77.5,85.5,74.5z"/>
	</g>
</g>
<g>
	<g>
		<circle class="st0" cx="72" cy="144.1" r="16"/>
	</g>
</g>
<g>
	<g>
		<circle class="st0" cx="16" cy="88.1" r="16"/>
	</g>
</g>
<g>
	<g>
		<path class="st0" d="M325.7,402.4l-72-72c-1.5-1.5-3.5-2.3-5.7-2.3h-64c-4.4,0-8,3.6-8,8l0.2,63.8c0,2.1,0.9,4.1,2.3,5.6l72,72
			c3.1,3.1,8.2,3.1,11.3,0c0,0,0,0,0,0l63.8-63.8C328.8,410.6,328.8,405.5,325.7,402.4z M256.2,460.6l-64-64l-0.2-52.5h52.7l64,64
			L256.2,460.6z"/>
	</g>
</g>
<g>
	<g>
		<path class="st0" d="M280,48.1c4.4,0,8-3.6,8-8v-32c0-4.4-3.6-8-8-8H120c-4.4,0-8,3.6-8,8v32c0,4.4,3.6,8,8,8s8,3.6,8,8
			s-3.6,8-8,8s-8,3.6-8,8v32c0,4.4,3.6,8,8,8h160c4.4,0,8-3.6,8-8v-32c0-4.4-3.6-8-8-8s-8-3.6-8-8S275.6,48.1,280,48.1z M272,33.5
			c-12.5,4.4-19.1,18.1-14.6,30.6c2.4,6.8,7.8,12.2,14.6,14.6v17.4h-40v-8h-16v8h-88V78.7c12.5-4.4,19.1-18.1,14.6-30.6
			c-2.4-6.8-7.8-12.2-14.6-14.6V16.1h144V33.5z"/>
	</g>
</g>
<g>
	<g>
		<rect x="216" y="24.1" class="st0" width="16" height="16"/>
	</g>
</g>
<g>
	<g>
		<rect x="216" y="56.1" class="st0" width="16" height="16"/>
	</g>
</g>
</svg>
