<?xml version="1.0" encoding="utf-8"?>
<!-- Generator: Adobe Illustrator 21.1.0, SVG Export Plug-In . SVG Version: 6.00 Build 0)  -->
<svg version="1.1" id="Capa_1" xmlns="http://www.w3.org/2000/svg" xmlns:xlink="http://www.w3.org/1999/xlink" x="0px" y="0px"
	 viewBox="0 0 512 512" style="enable-background:new 0 0 512 512;" xml:space="preserve">
<style type="text/css">
	.st0{fill:#1ED470;}
</style>
<g>
	<g>
		<path class="st0" d="M344,40c-4.4,0-8,3.6-8,8v376c0,22.1-17.9,40-40,40H56c-22.1,0-40-17.9-40-40V48c0-4.4-3.6-8-8-8s-8,3.6-8,8
			v376c0,30.9,25.1,56,56,56h240c30.9,0,56-25.1,56-56V48C352,43.6,348.4,40,344,40z"/>
	</g>
</g>
<g>
	<g>
		<path class="st0" d="M344,416c-4.4,0-8,3.6-8,8v32c0,22.1-17.9,40-40,40H56c-22.1,0-40-17.9-40-40v-32c0-4.4-3.6-8-8-8s-8,3.6-8,8
			v32c0,30.9,25.1,56,56,56h240c30.9,0,56-25.1,56-56v-32C352,419.6,348.4,416,344,416z"/>
	</g>
</g>
<g>
	<g>
		<path class="st0" d="M384,0c-26.5,0-48,21.5-48,48c0,4.4,3.6,8,8,8s8-3.6,8-8c0-17.6,14.4-32,32-32c4.4,0,8-3.6,8-8S388.4,0,384,0
			z"/>
	</g>
</g>
<g>
	<g>
		<path class="st0" d="M48,0C21.5,0,0,21.5,0,48c0,4.4,3.6,8,8,8s8-3.6,8-8c0-17.6,14.4-32,32-32c4.4,0,8-3.6,8-8S52.4,0,48,0z"/>
	</g>
</g>
<g>
	<g>
		<path class="st0" d="M384,0c-4.4,0-8,3.6-8,8s3.6,8,8,8c17.6,0,32,14.4,32,32c0,4.4,3.6,8,8,8s8-3.6,8-8C432,21.5,410.5,0,384,0z"
			/>
	</g>
</g>
<g>
	<g>
		<path class="st0" d="M504,176c-4.4,0-8,3.6-8,8c0,17.6-14.4,32-32,32c-4.4,0-8,3.6-8,8s3.6,8,8,8c26.5,0,48-21.5,48-48
			C512,179.6,508.4,176,504,176z"/>
	</g>
</g>
<g>
	<g>
		<path class="st0" d="M464,216c-17.6,0-32-14.4-32-32c0-4.4-3.6-8-8-8s-8,3.6-8,8c0,26.5,21.5,48,48,48c4.4,0,8-3.6,8-8
			S468.4,216,464,216z"/>
	</g>
</g>
<g>
	<g>
		<path class="st0" d="M384,0H48c-4.4,0-8,3.6-8,8s3.6,8,8,8h336c4.4,0,8-3.6,8-8S388.4,0,384,0z"/>
	</g>
</g>
<g>
	<g>
		<path class="st0" d="M344,400H8c-4.4,0-8,3.6-8,8s3.6,8,8,8h336c4.4,0,8-3.6,8-8S348.4,400,344,400z"/>
	</g>
</g>
<g>
	<g>
		<path class="st0" d="M176,416c-13.2,0-24,10.8-24,24s10.8,24,24,24s24-10.8,24-24S189.2,416,176,416z M176,448c-4.4,0-8-3.6-8-8
			s3.6-8,8-8s8,3.6,8,8C184,444.4,180.4,448,176,448z"/>
	</g>
</g>
<g>
	<g>
		<path class="st0" d="M96,296H64c-13.2,0-24,10.8-24,24v32c0,13.2,10.8,24,24,24h32c13.2,0,24-10.8,24-24v-32
			C120,306.8,109.2,296,96,296z M104,352c0,4.4-3.6,8-8,8H64c-4.4,0-8-3.6-8-8v-32c0-4.4,3.6-8,8-8h32c4.4,0,8,3.6,8,8V352z"/>
	</g>
</g>
<g>
	<g>
		<path class="st0" d="M192,296h-32c-13.2,0-24,10.8-24,24v32c0,13.2,10.8,24,24,24h32c13.2,0,24-10.8,24-24v-32
			C216,306.8,205.2,296,192,296z M200,352c0,4.4-3.6,8-8,8h-32c-4.4,0-8-3.6-8-8v-32c0-4.4,3.6-8,8-8h32c4.4,0,8,3.6,8,8V352z"/>
	</g>
</g>
<g>
	<g>
		<path class="st0" d="M288,296h-32c-13.2,0-24,10.8-24,24v32c0,13.2,10.8,24,24,24h32c13.2,0,24-10.8,24-24v-32
			C312,306.8,301.2,296,288,296z M296,352c0,4.4-3.6,8-8,8h-32c-4.4,0-8-3.6-8-8v-32c0-4.4,3.6-8,8-8h32c4.4,0,8,3.6,8,8V352z"/>
	</g>
</g>
<g>
	<g>
		<path class="st0" d="M96,40H64c-13.2,0-24,10.8-24,24v32c0,13.2,10.8,24,24,24h32c13.2,0,24-10.8,24-24V64
			C120,50.8,109.2,40,96,40z M104,96c0,4.4-3.6,8-8,8H64c-4.4,0-8-3.6-8-8V64c0-4.4,3.6-8,8-8h32c4.4,0,8,3.6,8,8V96z"/>
	</g>
</g>
<g>
	<g>
		<path class="st0" d="M192,40h-32c-13.2,0-24,10.8-24,24v32c0,13.2,10.8,24,24,24h32c13.2,0,24-10.8,24-24V64
			C216,50.8,205.2,40,192,40z M200,96c0,4.4-3.6,8-8,8h-32c-4.4,0-8-3.6-8-8V64c0-4.4,3.6-8,8-8h32c4.4,0,8,3.6,8,8V96z"/>
	</g>
</g>
<g>
	<g>
		<path class="st0" d="M288,40h-32c-13.2,0-24,10.8-24,24v32c0,13.2,10.8,24,24,24h32c13.2,0,24-10.8,24-24V64
			C312,50.8,301.2,40,288,40z M296,96c0,4.4-3.6,8-8,8h-32c-4.4,0-8-3.6-8-8V64c0-4.4,3.6-8,8-8h32c4.4,0,8,3.6,8,8V96z"/>
	</g>
</g>
<g>
	<g>
		<path class="st0" d="M96,136H64c-13.2,0-24,10.8-24,24v32c0,13.2,10.8,24,24,24h32c13.2,0,24-10.8,24-24v-32
			C120,146.8,109.2,136,96,136z M104,192c0,4.4-3.6,8-8,8H64c-4.4,0-8-3.6-8-8v-32c0-4.4,3.6-8,8-8h32c4.4,0,8,3.6,8,8V192z"/>
	</g>
</g>
<g>
	<g>
		<path class="st0" d="M288,136h-32c-13.2,0-24,10.8-24,24v32c0,13.2,10.8,24,24,24h32c13.2,0,24-10.8,24-24v-32
			C312,146.8,301.2,136,288,136z M296,192c0,4.4-3.6,8-8,8h-32c-4.4,0-8-3.6-8-8v-32c0-4.4,3.6-8,8-8h32c4.4,0,8,3.6,8,8V192z"/>
	</g>
</g>
<g>
	<g>
		<path class="st0" d="M424,40c-4.4,0-8,3.6-8,8v136c0,4.4,3.6,8,8,8s8-3.6,8-8V48C432,43.6,428.4,40,424,40z"/>
	</g>
</g>
<g>
	<g>
		<path class="st0" d="M464,104c-4.4,0-8,3.6-8,8s3.6,8,8,8c17.6,0,32,14.4,32,32c0,4.4,3.6,8,8,8s8-3.6,8-8
			C512,125.5,490.5,104,464,104z"/>
	</g>
</g>
<g>
	<g>
		<path class="st0" d="M464,216H344c-4.4,0-8,3.6-8,8s3.6,8,8,8h120c4.4,0,8-3.6,8-8S468.4,216,464,216z"/>
	</g>
</g>
<g>
	<g>
		<path class="st0" d="M464,104h-40c-4.4,0-8,3.6-8,8s3.6,8,8,8h40c4.4,0,8-3.6,8-8S468.4,104,464,104z"/>
	</g>
</g>
<g>
	<g>
		<path class="st0" d="M504,144c-4.4,0-8,3.6-8,8v32c0,4.4,3.6,8,8,8s8-3.6,8-8v-32C512,147.6,508.4,144,504,144z"/>
	</g>
</g>
</svg>
